{"glyphs":{"0":{"ha":876,"x_min":0,"x_max":0,"o":"m 97 665 b 438 1006 97 853 250 1006 b 779 665 626 1006 779 853 l 779 308 b 438 -33 779 119 626 -33 b 97 308 250 -33 97 119 z m 272 308 b 438 142 272 215 346 142 b 604 308 531 142 604 215 l 604 665 b 438 832 604 757 531 832 b 272 665 346 832 272 757 z "},"1":{"ha":544,"x_min":0,"x_max":0,"o":"m 147 972 l 104 819 l 238 819 l 238 0 l 413 0 l 413 972 z "},"2":{"ha":874,"x_min":0,"x_max":0,"o":"m 681 483 b 749 682 724 539 749 607 b 424 1006 749 861 604 1006 b 104 731 261 1006 128 888 l 272 706 b 424 836 283 779 347 836 b 578 682 510 836 578 767 b 540 579 578 643 563 608 l 83 0 l 733 0 l 733 154 l 417 154 z "},"3":{"ha":889,"x_min":0,"x_max":0,"o":"m 674 493 b 774 706 736 540 774 614 b 446 1006 774 885 635 1006 b 118 757 285 1006 154 900 l 288 729 b 446 851 303 799 365 851 b 599 706 538 851 599 790 b 446 558 599 621 538 558 l 372 558 l 372 421 l 446 421 b 604 275 538 421 604 367 b 446 121 604 190 540 121 b 288 244 365 121 303 174 l 118 215 b 446 -33 154 72 285 -33 b 779 275 642 -33 779 96 b 674 493 779 378 739 449 z "},"4":{"ha":861,"x_min":0,"x_max":0,"o":"m 778 317 l 664 317 l 664 518 l 490 519 l 490 317 l 276 317 l 556 972 l 378 972 l 97 317 l 97 163 l 490 164 l 490 0 l 664 0 l 664 164 l 778 164 z "},"5":{"ha":907,"x_min":0,"x_max":0,"o":"m 454 649 b 350 624 415 649 381 639 l 381 818 l 746 818 l 746 972 l 244 972 l 150 389 l 304 389 b 454 490 325 447 383 490 b 638 307 556 490 638 408 b 454 125 638 207 556 125 b 283 247 375 125 307 176 l 125 222 b 454 -33 163 76 296 -33 b 796 308 643 -33 796 119 b 454 649 796 496 643 649 z "},"6":{"ha":876,"x_min":0,"x_max":0,"o":"m 583 615 b 392 635 521 644 453 650 l 549 972 l 374 972 l 129 450 b 294 -4 50 279 124 76 b 749 161 465 -83 668 -10 b 583 615 828 333 754 535 z m 604 228 b 361 140 563 136 453 97 b 274 383 269 183 231 292 b 517 471 315 475 425 514 b 604 228 608 429 647 319 z "},"7":{"ha":857,"x_min":0,"x_max":0,"o":"m 111 972 l 111 819 l 522 819 l 193 0 l 371 0 l 760 972 z "},"8":{"ha":903,"x_min":0,"x_max":0,"o":"m 653 524 b 760 729 717 572 760 646 b 451 1004 760 881 622 1004 b 143 729 282 1004 143 881 b 251 524 143 646 186 572 b 111 276 167 468 111 378 b 451 -33 111 106 264 -33 b 792 276 640 -33 792 99 b 653 524 792 378 736 468 z m 301 722 b 451 860 301 799 369 860 b 601 722 535 860 601 799 b 451 585 601 646 535 585 b 301 722 369 585 301 646 z m 451 108 b 268 281 350 108 268 186 b 451 453 268 376 350 453 b 636 281 553 453 636 376 b 451 108 636 186 553 108 z "},"9":{"ha":876,"x_min":0,"x_max":0,"o":"m 583 976 b 129 811 413 1056 210 982 b 294 357 50 640 124 438 b 486 338 357 328 425 324 l 329 0 l 504 0 l 747 522 b 583 976 828 693 754 896 z m 604 590 b 361 500 561 499 453 458 b 272 744 269 543 231 653 b 515 833 315 836 424 875 b 604 590 608 790 647 681 z "}," ":{"ha":611,"x_min":0,"x_max":0,"o":""},"A":{"ha":956,"x_min":0,"x_max":0,"o":"m 28 0 l 222 0 l 478 600 l 735 0 l 928 0 l 478 1006 z "},"Á":{"ha":956,"x_min":0,"x_max":0,"o":"m 544 1303 l 432 1071 l 524 1071 l 707 1303 z m 28 0 l 222 0 l 478 600 l 735 0 l 928 0 l 478 1006 z "},"Ă":{"ha":956,"x_min":0,"x_max":0,"o":"m 651 1292 b 479 1118 651 1196 574 1118 b 304 1292 383 1118 304 1196 l 339 1292 b 479 1153 339 1215 401 1153 b 617 1292 556 1153 617 1215 z m 28 0 l 222 0 l 478 600 l 735 0 l 928 0 l 478 1006 z "},"Ǎ":{"ha":956,"x_min":0,"x_max":0,"o":"m 589 1303 l 478 1174 l 364 1303 l 232 1303 l 408 1071 l 549 1071 l 724 1303 z m 28 0 l 222 0 l 478 600 l 735 0 l 928 0 l 478 1006 z "},"Â":{"ha":956,"x_min":0,"x_max":0,"o":"m 589 1071 l 724 1071 l 549 1303 l 408 1303 l 232 1071 l 364 1071 l 478 1200 z m 28 0 l 222 0 l 478 600 l 735 0 l 928 0 l 478 1006 z "},"Ä":{"ha":956,"x_min":0,"x_max":0,"o":"m 389 1190 b 292 1093 389 1136 346 1093 b 194 1190 239 1093 194 1136 b 292 1288 194 1243 239 1288 b 389 1190 346 1288 389 1243 z m 763 1190 b 665 1093 763 1136 719 1093 b 568 1190 613 1093 568 1136 b 665 1288 568 1243 613 1288 b 763 1190 719 1288 763 1243 z m 28 0 l 222 0 l 478 600 l 735 0 l 928 0 l 478 1006 z "},"À":{"ha":956,"x_min":0,"x_max":0,"o":"m 413 1303 l 249 1303 l 432 1071 l 524 1071 z m 28 0 l 222 0 l 478 600 l 735 0 l 928 0 l 478 1006 z "},"Ā":{"ha":956,"x_min":0,"x_max":0,"o":"m 708 1125 l 708 1254 l 247 1254 l 247 1125 z m 28 0 l 222 0 l 478 600 l 735 0 l 928 0 l 478 1006 z "},"Ą":{"ha":956,"x_min":0,"x_max":0,"o":"m 28 0 l 222 0 l 478 600 l 735 0 l 750 0 b 657 -178 672 -43 636 -119 b 804 -262 678 -229 732 -262 b 928 -224 876 -262 928 -224 l 876 -140 b 826 -150 876 -140 850 -151 b 790 -119 811 -150 792 -137 b 928 0 786 -82 833 -47 l 478 1006 z "},"Å":{"ha":956,"x_min":0,"x_max":0,"o":"m 613 1193 b 479 1058 613 1118 553 1058 b 344 1193 404 1058 344 1118 b 479 1326 344 1267 404 1326 b 613 1193 553 1326 613 1267 z m 533 1193 b 479 1247 533 1224 510 1247 b 424 1193 447 1247 424 1224 b 479 1138 424 1161 447 1138 b 533 1193 510 1138 533 1161 z m 28 0 l 222 0 l 478 600 l 735 0 l 928 0 l 478 1006 z "},"Ã":{"ha":956,"x_min":0,"x_max":0,"o":"m 506 1250 b 678 1279 593 1217 647 1246 l 754 1197 b 449 1129 672 1086 567 1085 b 275 1100 358 1163 306 1133 l 200 1182 b 506 1250 263 1275 361 1304 z m 28 0 l 222 0 l 478 600 l 735 0 l 928 0 l 478 1006 z "},"Æ":{"ha":1429,"x_min":0,"x_max":0,"o":"m 83 0 l 276 0 l 735 696 l 736 0 l 1367 0 l 1367 154 l 910 154 l 910 431 l 1346 431 l 1346 575 l 910 575 l 910 818 l 1367 818 l 1367 972 l 736 972 z "},"B":{"ha":842,"x_min":0,"x_max":0,"o":"m 654 533 b 721 706 696 578 721 639 b 454 972 721 853 601 972 l 90 972 l 90 0 l 494 0 b 786 292 656 0 786 131 b 654 533 786 394 733 483 z m 425 826 b 547 706 492 826 547 772 b 425 583 547 639 492 583 l 265 583 l 265 826 z m 472 154 l 265 154 l 265 438 l 472 438 b 613 296 550 438 613 375 b 472 154 613 218 550 154 z "},"C":{"ha":1081,"x_min":0,"x_max":0,"o":"m 874 303 b 581 140 813 206 704 140 b 236 486 390 140 236 296 b 581 833 236 678 390 833 b 874 671 704 833 813 768 l 1018 761 b 579 1004 928 907 765 1004 b 63 486 294 1004 63 772 b 579 -32 63 200 294 -32 b 1018 213 765 -32 928 65 z "},"Ć":{"ha":1081,"x_min":0,"x_max":0,"o":"m 607 1303 l 496 1071 l 588 1071 l 771 1303 z m 874 303 b 581 140 813 206 704 140 b 236 486 390 140 236 296 b 581 833 236 678 390 833 b 874 671 704 833 813 768 l 1018 761 b 579 1004 928 907 765 1004 b 63 486 294 1004 63 772 b 579 -32 63 200 294 -32 b 1018 213 765 -32 928 65 z "},"Č":{"ha":1081,"x_min":0,"x_max":0,"o":"m 679 1303 l 568 1174 l 454 1303 l 322 1303 l 499 1071 l 639 1071 l 814 1303 z m 874 303 b 581 140 813 206 704 140 b 236 486 390 140 236 296 b 581 833 236 678 390 833 b 874 671 704 833 813 768 l 1018 761 b 579 1004 928 907 765 1004 b 63 486 294 1004 63 772 b 579 -32 63 200 294 -32 b 1018 213 765 -32 928 65 z "},"Ç":{"ha":1081,"x_min":0,"x_max":0,"o":"m 581 140 b 236 486 390 140 236 296 b 581 833 236 678 390 833 b 874 671 704 833 813 768 l 1018 761 b 579 1004 928 907 765 1004 b 63 486 294 1004 63 772 b 503 -26 63 226 254 11 l 478 -75 l 478 -133 b 549 -133 490 -132 528 -131 b 608 -183 579 -140 608 -154 b 540 -232 608 -214 578 -229 b 425 -222 499 -235 425 -222 l 425 -308 b 590 -335 425 -308 494 -340 b 747 -189 681 -329 747 -276 b 600 -56 747 -110 683 -62 l 613 -31 b 1018 213 785 -21 933 74 l 874 303 b 581 140 813 206 704 140 z "},"Ċ":{"ha":833,"x_min":0,"x_max":0,"o":"m 664 1188 b 567 1090 664 1133 621 1090 b 469 1188 514 1090 469 1133 b 567 1285 469 1240 514 1285 b 664 1188 621 1285 664 1240 z m 874 303 b 581 140 813 206 704 140 b 236 486 390 140 236 296 b 581 833 236 678 390 833 b 874 671 704 833 813 768 l 1018 761 b 579 1004 928 907 765 1004 b 63 486 294 1004 63 772 b 579 -32 63 200 294 -32 b 1018 213 765 -32 928 65 z "},"D":{"ha":933,"x_min":0,"x_max":0,"o":"m 90 972 l 90 0 l 381 0 b 864 486 649 0 864 196 b 381 972 864 778 649 972 z m 264 803 l 376 803 b 692 486 550 803 692 661 b 376 171 692 311 550 171 l 264 171 z "},"Ð":{"ha":1011,"x_min":0,"x_max":0,"o":"m 85 422 l 168 422 l 168 0 l 457 0 b 942 486 725 0 942 196 b 457 972 942 778 725 972 l 168 972 l 168 551 l 85 551 z m 340 171 l 340 422 l 533 422 l 533 551 l 340 551 l 340 803 l 453 803 b 769 486 628 803 769 661 b 453 171 769 311 628 171 z "},"Ď":{"ha":933,"x_min":0,"x_max":0,"o":"m 567 1303 l 456 1174 l 340 1303 l 210 1303 l 386 1071 l 526 1071 l 701 1303 z m 90 972 l 90 0 l 381 0 b 864 486 649 0 864 196 b 381 972 864 778 649 972 z m 264 803 l 376 803 b 692 486 550 803 692 661 b 376 171 692 311 550 171 l 264 171 z "},"Đ":{"ha":1011,"x_min":0,"x_max":0,"o":"m 85 422 l 168 422 l 168 0 l 457 0 b 942 486 725 0 942 196 b 457 972 942 778 725 972 l 168 972 l 168 551 l 85 551 z m 340 171 l 340 422 l 533 422 l 533 551 l 340 551 l 340 803 l 453 803 b 769 486 628 803 769 661 b 453 171 769 311 628 171 z "},"E":{"ha":811,"x_min":0,"x_max":0,"o":"m 721 818 l 721 972 l 90 972 l 90 0 l 721 0 l 721 154 l 265 154 l 265 431 l 700 431 l 700 575 l 265 575 l 265 818 z "},"É":{"ha":811,"x_min":0,"x_max":0,"o":"m 472 1303 l 360 1071 l 451 1071 l 635 1303 z m 721 818 l 721 972 l 90 972 l 90 0 l 721 0 l 721 154 l 265 154 l 265 431 l 700 431 l 700 575 l 265 575 l 265 818 z "},"Ě":{"ha":811,"x_min":0,"x_max":0,"o":"m 515 1303 l 404 1174 l 290 1303 l 158 1303 l 335 1071 l 475 1071 l 650 1303 z m 721 818 l 721 972 l 90 972 l 90 0 l 721 0 l 721 154 l 265 154 l 265 431 l 700 431 l 700 575 l 265 575 l 265 818 z "},"Ê":{"ha":811,"x_min":0,"x_max":0,"o":"m 517 1071 l 651 1071 l 476 1303 l 336 1303 l 160 1071 l 292 1071 l 406 1200 z m 721 818 l 721 972 l 90 972 l 90 0 l 721 0 l 721 154 l 265 154 l 265 431 l 700 431 l 700 575 l 265 575 l 265 818 z "},"Ë":{"ha":811,"x_min":0,"x_max":0,"o":"m 317 1188 b 219 1090 317 1133 272 1090 b 122 1188 165 1090 122 1133 b 219 1285 122 1240 165 1285 b 317 1188 272 1285 317 1240 z m 690 1188 b 593 1090 690 1133 646 1090 b 496 1188 539 1090 496 1133 b 593 1285 496 1240 539 1285 b 690 1188 646 1285 690 1240 z m 721 818 l 721 972 l 90 972 l 90 0 l 721 0 l 721 154 l 265 154 l 265 431 l 700 431 l 700 575 l 265 575 l 265 818 z "},"Ė":{"ha":811,"x_min":0,"x_max":0,"o":"m 503 1190 b 406 1093 503 1136 458 1093 b 308 1190 351 1093 308 1136 b 406 1288 308 1243 351 1288 b 503 1190 458 1288 503 1243 z m 721 818 l 721 972 l 90 972 l 90 0 l 721 0 l 721 154 l 265 154 l 265 431 l 700 431 l 700 575 l 265 575 l 265 818 z "},"È":{"ha":815,"x_min":0,"x_max":0,"o":"m 358 1303 l 196 1303 l 379 1071 l 471 1071 z m 725 818 l 725 972 l 94 972 l 94 0 l 725 0 l 725 154 l 269 154 l 269 431 l 704 431 l 704 575 l 269 575 l 269 818 z "},"Ē":{"ha":811,"x_min":0,"x_max":0,"o":"m 638 1125 l 638 1254 l 176 1254 l 176 1125 z m 721 818 l 721 972 l 90 972 l 90 0 l 721 0 l 721 154 l 265 154 l 265 431 l 700 431 l 700 575 l 265 575 l 265 818 z "},"Ę":{"ha":811,"x_min":0,"x_max":0,"o":"m 543 0 b 450 -178 465 -43 429 -119 b 597 -262 471 -229 525 -262 b 721 -224 669 -262 721 -224 l 669 -140 b 619 -150 669 -140 643 -151 b 583 -119 604 -150 585 -137 b 721 0 579 -82 626 -47 l 721 154 l 265 154 l 265 431 l 700 431 l 700 575 l 265 575 l 265 818 l 721 818 l 721 972 l 90 972 l 90 0 z "},"F":{"ha":804,"x_min":0,"x_max":0,"o":"m 721 818 l 721 974 l 90 974 l 90 -1 l 265 -1 l 265 431 l 721 431 l 721 575 l 265 575 l 265 818 z "},"G":{"ha":1036,"x_min":0,"x_max":0,"o":"m 810 382 l 810 190 b 582 133 747 150 671 133 b 236 486 390 133 236 292 b 582 840 236 683 390 840 b 742 811 650 840 693 831 l 742 983 b 581 1004 692 997 636 1004 b 63 486 294 1004 63 772 b 579 -32 63 201 294 -32 b 967 88 729 -32 864 11 l 967 526 l 579 526 l 579 382 z "},"Ğ":{"ha":1036,"x_min":0,"x_max":0,"o":"m 733 1292 b 561 1118 733 1196 656 1118 b 386 1292 465 1118 386 1196 l 421 1292 b 561 1153 421 1215 483 1153 b 699 1292 638 1153 699 1215 z m 810 382 l 810 190 b 582 133 747 150 671 133 b 236 486 390 133 236 292 b 582 840 236 683 390 840 b 742 811 650 840 693 831 l 742 983 b 581 1004 692 997 636 1004 b 63 486 294 1004 63 772 b 579 -32 63 201 294 -32 b 967 88 729 -32 864 11 l 967 526 l 579 526 l 579 382 z "},"Ģ":{"ha":1036,"x_min":0,"x_max":0,"o":"m 810 382 l 810 190 b 582 133 747 150 671 133 b 236 486 390 133 236 292 b 582 840 236 683 390 840 b 742 811 650 840 693 831 l 742 983 b 581 1004 692 997 636 1004 b 63 486 294 1004 63 772 b 579 -32 63 201 294 -32 b 967 88 729 -32 864 11 l 967 526 l 579 526 l 579 382 z m 489 -86 l 457 -318 l 542 -318 l 628 -86 z "},"Ġ":{"ha":1036,"x_min":0,"x_max":0,"o":"m 668 1174 b 571 1076 668 1119 624 1076 b 474 1174 517 1076 474 1119 b 571 1271 474 1226 517 1271 b 668 1174 624 1271 668 1226 z m 810 382 l 810 190 b 582 133 747 150 671 133 b 236 486 390 133 236 292 b 582 840 236 683 390 840 b 742 811 650 840 693 831 l 742 983 b 581 1004 692 997 636 1004 b 63 486 294 1004 63 772 b 579 -32 63 201 294 -32 b 967 88 729 -32 864 11 l 967 526 l 579 526 l 579 382 z "},"H":{"ha":924,"x_min":0,"x_max":0,"o":"m 660 972 l 660 576 l 264 576 l 264 972 l 90 972 l 90 0 l 264 0 l 264 431 l 660 431 l 660 0 l 833 0 l 833 972 z "},"Ħ":{"ha":924,"x_min":0,"x_max":0,"o":"m 917 889 l 833 889 l 833 972 l 660 972 l 660 889 l 264 889 l 264 972 l 90 972 l 90 889 l 7 889 l 7 760 l 90 760 l 90 0 l 264 0 l 264 431 l 660 431 l 660 0 l 833 0 l 833 760 l 917 760 z m 660 576 l 264 576 l 264 760 l 660 760 z "},"I":{"ha":354,"x_min":0,"x_max":0,"o":"m 264 0 l 90 0 l 90 972 l 264 972 z "},"Í":{"ha":385,"x_min":0,"x_max":0,"o":"m 243 1303 l 132 1071 l 224 1071 l 407 1303 z m 264 0 l 90 0 l 90 972 l 264 972 z "},"Ǐ":{"ha":422,"x_min":0,"x_max":0,"o":"m 322 1303 l 211 1174 l 97 1303 l -35 1303 l 142 1071 l 282 1071 l 457 1303 z m 299 0 l 125 0 l 125 972 l 299 972 z "},"Î":{"ha":443,"x_min":0,"x_max":0,"o":"m 333 1071 l 468 1071 l 293 1303 l 153 1303 l -25 1071 l 107 1071 l 222 1200 z m 308 0 l 135 0 l 135 972 l 308 972 z "},"Ï":{"ha":568,"x_min":0,"x_max":0,"o":"m 194 1174 b 97 1076 194 1119 151 1076 b 0 1174 44 1076 0 1119 b 97 1271 0 1226 44 1271 b 194 1174 151 1271 194 1226 z m 568 1174 b 471 1076 568 1119 525 1076 b 374 1174 418 1076 374 1119 b 471 1271 374 1226 418 1271 b 568 1174 525 1271 568 1226 z m 371 0 l 197 0 l 197 972 l 371 972 z "},"İ":{"ha":368,"x_min":0,"x_max":0,"o":"m 282 1174 b 185 1076 282 1119 238 1076 b 88 1174 131 1076 88 1119 b 185 1271 88 1226 131 1271 b 282 1174 238 1271 282 1226 z m 271 0 l 97 0 l 97 972 l 271 972 z "},"Ì":{"ha":354,"x_min":0,"x_max":0,"o":"m 115 1303 l -49 1303 l 135 1071 l 226 1071 z m 264 0 l 90 0 l 90 972 l 264 972 z "},"Ī":{"ha":413,"x_min":0,"x_max":0,"o":"m 438 1125 l 438 1254 l -25 1254 l -25 1125 z m 294 0 l 121 0 l 121 972 l 294 972 z "},"Į":{"ha":382,"x_min":0,"x_max":0,"o":"m 118 0 b 19 -178 36 -42 -1 -119 b 168 -262 40 -229 96 -262 b 292 -224 239 -262 292 -224 l 239 -140 b 190 -150 239 -140 214 -151 b 153 -119 174 -150 154 -137 b 292 0 150 -82 196 -47 l 292 972 l 118 972 z "},"J":{"ha":650,"x_min":0,"x_max":0,"o":"m 567 453 l 567 972 l 392 972 l 392 453 b 81 142 393 281 253 142 b 49 143 69 142 60 143 l 49 -32 b 82 -33 60 -33 71 -33 b 567 453 350 -33 567 185 z "},"K":{"ha":851,"x_min":0,"x_max":0,"o":"m 90 972 l 90 0 l 264 0 l 264 972 z m 264 518 l 615 0 l 817 0 l 469 518 l 817 972 l 615 972 z "},"Ķ":{"ha":851,"x_min":0,"x_max":0,"o":"m 90 972 l 90 0 l 264 0 l 264 972 z m 264 518 l 615 0 l 817 0 l 469 518 l 817 972 l 615 972 z m 363 -86 l 331 -318 l 415 -318 l 501 -86 z "},"L":{"ha":819,"x_min":0,"x_max":0,"o":"m 264 156 l 264 972 l 90 972 l 90 0 l 785 0 l 785 156 z "},"Ĺ":{"ha":819,"x_min":0,"x_max":0,"o":"m 242 1303 l 129 1071 l 221 1071 l 404 1303 z m 264 156 l 264 972 l 90 972 l 90 0 l 785 0 l 785 156 z "},"Ľ":{"ha":819,"x_min":0,"x_max":0,"o":"m 264 156 l 264 972 l 90 972 l 90 0 l 785 0 l 785 156 z m 346 972 l 314 740 l 399 740 l 485 972 z "},"Ļ":{"ha":819,"x_min":0,"x_max":0,"o":"m 264 156 l 264 972 l 90 972 l 90 0 l 785 0 l 785 156 z m 392 -86 l 360 -318 l 444 -318 l 531 -86 z "},"Ł":{"ha":888,"x_min":0,"x_max":0,"o":"m 332 156 l 332 475 l 538 563 l 538 692 l 332 604 l 332 972 l 158 972 l 158 529 l 76 494 l 76 365 l 158 400 l 158 0 l 853 0 l 853 156 z "},"M":{"ha":1150,"x_min":0,"x_max":0,"o":"m 1060 1007 l 575 536 l 90 1007 l 90 0 l 264 0 l 264 619 l 575 310 l 886 619 l 886 0 l 1060 0 z "},"N":{"ha":989,"x_min":0,"x_max":0,"o":"m 725 972 l 725 365 l 90 1006 l 90 0 l 264 0 l 264 607 l 899 -33 l 899 972 z "},"Ń":{"ha":989,"x_min":0,"x_max":0,"o":"m 528 1303 l 415 1071 l 507 1071 l 690 1303 z m 725 972 l 725 365 l 90 1006 l 90 0 l 264 0 l 264 607 l 899 -33 l 899 972 z "},"Ň":{"ha":989,"x_min":0,"x_max":0,"o":"m 604 1303 l 493 1174 l 378 1303 l 247 1303 l 424 1071 l 564 1071 l 739 1303 z m 725 972 l 725 365 l 90 1006 l 90 0 l 264 0 l 264 607 l 899 -33 l 899 972 z "},"Ņ":{"ha":989,"x_min":0,"x_max":0,"o":"m 725 972 l 725 365 l 90 1006 l 90 0 l 264 0 l 264 607 l 899 -33 l 899 972 z m 460 -86 l 428 -318 l 513 -318 l 599 -86 z "},"Ŋ":{"ha":961,"x_min":0,"x_max":0,"o":"m 711 972 l 711 365 l 76 1006 l 76 0 l 250 0 l 250 607 l 711 129 l 711 0 b 596 -164 711 -75 669 -140 b 565 -169 586 -167 575 -169 l 565 -314 b 613 -312 581 -314 596 -315 b 885 0 765 -290 885 -161 l 885 972 z "},"Ñ":{"ha":989,"x_min":0,"x_max":0,"o":"m 517 1250 b 689 1279 604 1217 658 1246 l 765 1197 b 460 1129 683 1086 578 1085 b 286 1100 369 1163 317 1133 l 211 1182 b 517 1250 274 1275 372 1304 z m 725 972 l 725 365 l 90 1006 l 90 0 l 264 0 l 264 607 l 899 -33 l 899 972 z "},"O":{"ha":1160,"x_min":0,"x_max":0,"o":"m 581 1006 b 63 486 294 1006 63 774 b 581 -33 63 200 294 -33 b 1097 486 867 -33 1097 200 b 581 1006 1097 774 867 1006 z m 581 140 b 235 486 389 140 235 296 b 581 832 235 678 389 832 b 925 486 771 832 925 678 b 581 140 925 296 771 140 z "},"Ó":{"ha":1160,"x_min":0,"x_max":0,"o":"m 647 1303 l 535 1071 l 626 1071 l 810 1303 z m 581 1006 b 63 486 294 1006 63 774 b 581 -33 63 200 294 -33 b 1097 486 867 -33 1097 200 b 581 1006 1097 774 867 1006 z m 581 140 b 235 486 389 140 235 296 b 581 832 235 678 389 832 b 925 486 771 832 925 678 b 581 140 925 296 771 140 z "},"Ǒ":{"ha":1160,"x_min":0,"x_max":0,"o":"m 692 1303 l 581 1174 l 465 1303 l 335 1303 l 511 1071 l 651 1071 l 826 1303 z m 581 1006 b 63 486 294 1006 63 774 b 581 -33 63 200 294 -33 b 1097 486 867 -33 1097 200 b 581 1006 1097 774 867 1006 z m 581 140 b 235 486 389 140 235 296 b 581 832 235 678 389 832 b 925 486 771 832 925 678 b 581 140 925 296 771 140 z "},"Ô":{"ha":1160,"x_min":0,"x_max":0,"o":"m 693 1071 l 828 1071 l 653 1303 l 513 1303 l 336 1071 l 467 1071 l 582 1200 z m 581 1006 b 63 486 294 1006 63 774 b 581 -33 63 200 294 -33 b 1097 486 867 -33 1097 200 b 581 1006 1097 774 867 1006 z m 581 140 b 235 486 389 140 235 296 b 581 832 235 678 389 832 b 925 486 771 832 925 678 b 581 140 925 296 771 140 z "},"Ö":{"ha":1160,"x_min":0,"x_max":0,"o":"m 492 1185 b 394 1088 492 1131 449 1088 b 297 1185 342 1088 297 1131 b 394 1282 297 1238 342 1282 b 492 1185 449 1282 492 1238 z m 865 1185 b 768 1088 865 1131 822 1088 b 671 1185 715 1088 671 1131 b 768 1282 671 1238 715 1282 b 865 1185 822 1282 865 1238 z m 581 1006 b 63 486 294 1006 63 774 b 581 -33 63 200 294 -33 b 1097 486 867 -33 1097 200 b 581 1006 1097 774 867 1006 z m 581 140 b 235 486 389 140 235 296 b 581 832 235 678 389 832 b 925 486 771 832 925 678 b 581 140 925 296 771 140 z "},"Ò":{"ha":1160,"x_min":0,"x_max":0,"o":"m 515 1303 l 351 1303 l 535 1071 l 626 1071 z m 581 1006 b 63 486 294 1006 63 774 b 581 -33 63 200 294 -33 b 1097 486 867 -33 1097 200 b 581 1006 1097 774 867 1006 z m 581 140 b 235 486 389 140 235 296 b 581 832 235 678 389 832 b 925 486 771 832 925 678 b 581 140 925 296 771 140 z "},"Ő":{"ha":1160,"x_min":0,"x_max":0,"o":"m 485 1303 l 408 1071 l 493 1071 l 640 1303 z m 718 1303 l 642 1071 l 726 1071 l 875 1303 z m 581 1006 b 63 486 294 1006 63 774 b 581 -33 63 200 294 -33 b 1097 486 867 -33 1097 200 b 581 1006 1097 774 867 1006 z m 581 140 b 235 486 389 140 235 296 b 581 832 235 678 389 832 b 925 486 771 832 925 678 b 581 140 925 296 771 140 z "},"Ō":{"ha":1160,"x_min":0,"x_max":0,"o":"m 811 1125 l 811 1254 l 350 1254 l 350 1125 z m 581 1006 b 63 486 294 1006 63 774 b 581 -33 63 200 294 -33 b 1097 486 867 -33 1097 200 b 581 1006 1097 774 867 1006 z m 581 140 b 235 486 389 140 235 296 b 581 832 235 678 389 832 b 925 486 771 832 925 678 b 581 140 925 296 771 140 z "},"Ø":{"ha":1160,"x_min":0,"x_max":0,"o":"m 1065 1031 l 903 1031 l 835 938 b 581 1006 760 981 672 1006 b 63 486 294 1006 63 774 b 222 113 63 339 124 206 l 96 -60 l 257 -60 l 326 35 b 581 -33 401 -10 488 -33 b 1097 486 867 -33 1097 200 b 938 860 1097 633 1036 767 z m 328 254 b 235 486 271 315 235 396 b 581 832 235 678 389 832 b 728 796 633 832 685 819 z m 833 718 b 925 486 890 658 925 576 b 581 140 925 296 771 140 b 432 176 526 140 476 154 z "},"Õ":{"ha":1160,"x_min":0,"x_max":0,"o":"m 610 1250 b 782 1279 696 1217 751 1246 l 857 1197 b 551 1129 776 1086 671 1085 b 378 1100 463 1163 410 1133 l 303 1182 b 610 1250 367 1275 464 1304 z m 581 1006 b 63 486 294 1006 63 774 b 581 -33 63 200 294 -33 b 1097 486 867 -33 1097 200 b 581 1006 1097 774 867 1006 z m 581 140 b 235 486 389 140 235 296 b 581 832 235 678 389 832 b 925 486 771 832 925 678 b 581 140 925 296 771 140 z "},"Œ":{"ha":1646,"x_min":0,"x_max":0,"o":"m 1556 818 l 1556 972 l 925 972 l 925 854 b 581 1006 842 947 718 1006 b 63 486 294 1006 63 774 b 581 -33 63 200 294 -33 b 925 118 718 -33 842 26 l 925 0 l 1556 0 l 1556 154 l 1100 154 l 1100 431 l 1535 431 l 1535 575 l 1100 575 l 1100 818 z m 581 140 b 235 486 389 140 235 296 b 581 832 235 678 389 832 b 925 486 771 832 925 678 b 581 140 925 296 771 140 z "},"P":{"ha":882,"x_min":0,"x_max":0,"o":"m 90 972 l 90 0 l 264 0 l 264 374 l 535 374 b 833 674 700 374 833 507 b 535 972 833 839 700 972 z m 264 819 l 515 819 b 661 674 594 819 661 753 b 515 528 661 592 594 528 l 264 528 z "},"Þ":{"ha":882,"x_min":0,"x_max":0,"o":"m 264 0 l 264 188 l 535 188 b 833 486 700 188 833 321 b 535 786 833 653 700 786 l 264 786 l 264 972 l 90 972 l 90 0 z m 264 632 l 515 632 b 661 486 594 632 661 568 b 515 340 661 407 594 340 l 264 340 z "},"Q":{"ha":1172,"x_min":0,"x_max":0,"o":"m 1103 486 b 586 1004 1103 772 872 1004 b 69 486 301 1004 69 772 b 586 -33 69 200 301 -33 b 825 25 672 -33 754 -12 l 869 -33 l 1054 -33 l 944 114 b 1103 486 1042 207 1103 340 z m 586 142 b 242 486 396 142 242 296 b 586 831 242 676 396 831 b 932 486 778 831 932 676 b 838 256 932 396 896 314 l 771 340 l 588 340 l 718 168 b 586 142 678 150 633 142 z "},"R":{"ha":900,"x_min":0,"x_max":0,"o":"m 90 972 l 90 0 l 264 0 l 264 372 l 485 372 l 657 0 l 851 0 l 663 414 b 819 674 756 463 819 560 b 519 972 819 839 685 972 z m 264 819 l 499 819 b 644 674 581 819 644 753 b 499 528 644 592 581 528 l 264 528 z "},"Ŕ":{"ha":921,"x_min":0,"x_max":0,"o":"m 475 1303 l 364 1071 l 456 1071 l 639 1303 z m 90 972 l 90 0 l 264 0 l 264 372 l 485 372 l 657 0 l 851 0 l 663 414 b 819 674 756 463 819 560 b 519 972 819 839 685 972 z m 264 819 l 499 819 b 644 674 581 819 644 753 b 499 528 644 592 581 528 l 264 528 z "},"Ř":{"ha":942,"x_min":0,"x_max":0,"o":"m 543 1303 l 432 1174 l 317 1303 l 186 1303 l 363 1071 l 503 1071 l 678 1303 z m 90 972 l 90 0 l 264 0 l 264 372 l 485 372 l 657 0 l 851 0 l 663 414 b 819 674 756 463 819 560 b 519 972 819 839 685 972 z m 264 819 l 499 819 b 644 674 581 819 644 753 b 499 528 644 592 581 528 l 264 528 z "},"Ŗ":{"ha":900,"x_min":0,"x_max":0,"o":"m 90 972 l 90 0 l 264 0 l 264 372 l 485 372 l 657 0 l 851 0 l 663 414 b 819 674 756 463 819 560 b 519 972 819 839 685 972 z m 264 819 l 499 819 b 644 674 581 819 644 753 b 499 528 644 592 581 528 l 264 528 z m 382 -86 l 350 -318 l 435 -318 l 521 -86 z "},"S":{"ha":828,"x_min":0,"x_max":0,"o":"m 426 578 b 244 710 335 606 244 639 b 424 849 244 794 331 847 b 604 750 508 849 565 810 l 754 819 b 424 1006 703 925 582 1006 b 68 701 222 1006 68 872 b 407 421 68 553 240 469 b 604 269 500 394 604 353 b 399 125 604 171 500 124 b 190 258 310 128 228 193 l 35 186 b 399 -33 101 63 236 -33 b 779 263 611 -33 779 79 b 426 578 779 446 606 522 z "},"Ś":{"ha":814,"x_min":0,"x_max":0,"o":"m 478 1303 l 367 1071 l 458 1071 l 642 1303 z m 426 578 b 244 710 335 606 244 639 b 424 849 244 794 331 847 b 604 750 508 849 565 810 l 754 819 b 424 1006 703 925 582 1006 b 68 701 222 1006 68 872 b 407 421 68 553 240 469 b 604 269 500 394 604 353 b 399 125 604 171 500 124 b 190 258 310 128 228 193 l 35 186 b 399 -33 101 63 236 -33 b 779 263 611 -33 779 79 b 426 578 779 446 606 522 z "},"Š":{"ha":828,"x_min":0,"x_max":0,"o":"m 518 1303 l 407 1174 l 293 1303 l 161 1303 l 338 1071 l 478 1071 l 653 1303 z m 426 578 b 244 710 335 606 244 639 b 424 849 244 794 331 847 b 604 750 508 849 565 810 l 754 819 b 424 1006 703 925 582 1006 b 68 701 222 1006 68 872 b 407 421 68 553 240 469 b 604 269 500 394 604 353 b 399 125 604 171 500 124 b 190 258 310 128 228 193 l 35 186 b 399 -33 101 63 236 -33 b 779 263 611 -33 779 79 b 426 578 779 446 606 522 z "},"Ş":{"ha":828,"x_min":0,"x_max":0,"o":"m 779 263 b 426 578 779 446 606 522 b 244 710 335 606 244 639 b 424 849 244 794 331 847 b 604 750 508 849 565 810 l 754 819 b 424 1006 703 925 582 1006 b 68 701 222 1006 68 872 b 407 421 68 553 240 469 b 604 269 500 394 604 353 b 399 125 604 171 500 124 b 190 258 310 128 228 193 l 35 186 b 346 -29 94 76 207 -11 l 322 -75 l 322 -133 b 392 -133 335 -132 371 -131 b 451 -183 424 -140 451 -154 b 383 -232 451 -214 421 -229 b 268 -222 342 -235 268 -222 l 268 -308 b 433 -335 268 -308 338 -340 b 592 -189 525 -329 592 -276 b 444 -56 592 -110 526 -62 l 457 -31 b 779 263 640 -11 779 96 z "},"Ș":{"ha":828,"x_min":0,"x_max":0,"o":"m 426 578 b 244 710 335 606 244 639 b 424 849 244 794 331 847 b 604 750 508 849 565 810 l 754 819 b 424 1006 703 925 582 1006 b 68 701 222 1006 68 872 b 407 421 68 553 240 469 b 604 269 500 394 604 353 b 399 125 604 171 500 124 b 190 258 310 128 228 193 l 35 186 b 399 -33 101 63 236 -33 b 779 263 611 -33 779 79 b 426 578 779 446 606 522 z m 351 -86 l 319 -318 l 404 -318 l 490 -86 z "},"T":{"ha":938,"x_min":0,"x_max":0,"o":"m 889 972 l 49 972 l 49 801 l 382 801 l 382 0 l 556 0 l 556 801 l 889 801 z "},"Ŧ":{"ha":938,"x_min":0,"x_max":0,"o":"m 49 801 l 382 801 l 382 549 l 224 549 l 224 419 l 382 419 l 382 0 l 556 0 l 556 419 l 715 419 l 715 549 l 556 549 l 556 801 l 889 801 l 889 972 l 49 972 z "},"Ť":{"ha":938,"x_min":0,"x_max":0,"o":"m 581 1303 l 469 1174 l 354 1303 l 224 1303 l 400 1071 l 540 1071 l 715 1303 z m 889 972 l 49 972 l 49 801 l 382 801 l 382 0 l 556 0 l 556 801 l 889 801 z "},"Ţ":{"ha":938,"x_min":0,"x_max":0,"o":"m 556 0 l 556 801 l 889 801 l 889 972 l 49 972 l 49 801 l 382 801 l 382 0 l 414 0 l 376 -75 l 376 -133 b 447 -133 389 -132 426 -131 b 507 -183 478 -140 507 -154 b 439 -232 507 -214 476 -229 b 324 -222 397 -235 324 -222 l 324 -308 b 489 -335 324 -308 393 -340 b 646 -189 579 -329 646 -276 b 499 -56 646 -110 582 -62 l 526 0 z "},"Ț":{"ha":938,"x_min":0,"x_max":0,"o":"m 889 972 l 49 972 l 49 801 l 382 801 l 382 0 l 556 0 l 556 801 l 889 801 z m 400 -86 l 368 -318 l 453 -318 l 539 -86 z "},"U":{"ha":957,"x_min":0,"x_max":0,"o":"m 693 972 l 693 351 b 479 138 693 233 597 138 b 265 351 361 138 265 233 l 265 972 l 90 972 l 90 356 b 479 -33 90 142 264 -33 b 867 356 693 -33 867 142 l 867 972 z "},"Ú":{"ha":957,"x_min":0,"x_max":0,"o":"m 543 1304 l 431 1072 l 522 1072 l 706 1304 z m 693 972 l 693 351 b 479 138 693 233 597 138 b 265 351 361 138 265 233 l 265 972 l 90 972 l 90 356 b 479 -33 90 142 264 -33 b 867 356 693 -33 867 142 l 867 972 z "},"Ǔ":{"ha":957,"x_min":0,"x_max":0,"o":"m 590 1303 l 479 1174 l 364 1303 l 233 1303 l 410 1071 l 550 1071 l 725 1303 z m 693 972 l 693 351 b 479 138 693 233 597 138 b 265 351 361 138 265 233 l 265 972 l 90 972 l 90 356 b 479 -33 90 142 264 -33 b 867 356 693 -33 867 142 l 867 972 z "},"Û":{"ha":957,"x_min":0,"x_max":0,"o":"m 590 1071 l 725 1071 l 550 1303 l 410 1303 l 233 1071 l 364 1071 l 479 1200 z m 693 972 l 693 351 b 479 138 693 233 597 138 b 265 351 361 138 265 233 l 265 972 l 90 972 l 90 356 b 479 -33 90 142 264 -33 b 867 356 693 -33 867 142 l 867 972 z "},"Ü":{"ha":957,"x_min":0,"x_max":0,"o":"m 390 1190 b 293 1092 390 1136 346 1092 b 196 1190 239 1092 196 1136 b 293 1286 196 1243 239 1286 b 390 1190 346 1286 390 1243 z m 764 1190 b 667 1092 764 1136 719 1092 b 569 1190 613 1092 569 1136 b 667 1286 569 1243 613 1286 b 764 1190 719 1286 764 1243 z m 693 972 l 693 351 b 479 138 693 233 597 138 b 265 351 361 138 265 233 l 265 972 l 90 972 l 90 356 b 479 -33 90 142 264 -33 b 867 356 693 -33 867 142 l 867 972 z "},"Ù":{"ha":950,"x_min":0,"x_max":0,"o":"m 418 1303 l 256 1303 l 439 1071 l 531 1071 z m 693 972 l 693 351 b 479 138 693 233 597 138 b 265 351 361 138 265 233 l 265 972 l 90 972 l 90 356 b 479 -33 90 142 264 -33 b 867 356 693 -33 867 142 l 867 972 z "},"Ű":{"ha":957,"x_min":0,"x_max":0,"o":"m 394 1303 l 318 1071 l 403 1071 l 550 1303 z m 628 1303 l 551 1071 l 636 1071 l 785 1303 z m 693 972 l 693 351 b 479 138 693 233 597 138 b 265 351 361 138 265 233 l 265 972 l 90 972 l 90 356 b 479 -33 90 142 264 -33 b 867 356 693 -33 867 142 l 867 972 z "},"Ū":{"ha":957,"x_min":0,"x_max":0,"o":"m 710 1125 l 710 1254 l 249 1254 l 249 1125 z m 693 972 l 693 351 b 479 138 693 233 597 138 b 265 351 361 138 265 233 l 265 972 l 90 972 l 90 356 b 479 -33 90 142 264 -33 b 867 356 693 -33 867 142 l 867 972 z "},"Ų":{"ha":957,"x_min":0,"x_max":0,"o":"m 693 972 l 693 351 b 479 138 693 233 597 138 b 265 351 361 138 265 233 l 265 972 l 90 972 l 90 356 b 463 -33 90 147 256 -25 l 471 -33 b 436 -178 435 -74 421 -133 b 583 -262 456 -229 511 -262 b 707 -224 656 -262 707 -224 l 656 -140 b 606 -150 656 -140 629 -151 b 569 -119 590 -150 571 -137 b 697 35 565 -79 590 -42 b 867 356 800 104 867 222 l 867 972 z "},"Ů":{"ha":957,"x_min":0,"x_max":0,"o":"m 613 1193 b 479 1058 613 1118 553 1058 b 344 1193 404 1058 344 1118 b 479 1326 344 1267 404 1326 b 613 1193 553 1326 613 1267 z m 533 1193 b 479 1247 533 1224 510 1247 b 424 1193 447 1247 424 1224 b 479 1138 424 1161 447 1138 b 533 1193 510 1138 533 1161 z m 693 972 l 693 351 b 479 138 693 233 597 138 b 265 351 361 138 265 233 l 265 972 l 90 972 l 90 356 b 479 -33 90 142 264 -33 b 867 356 693 -33 867 142 l 867 972 z "},"V":{"ha":956,"x_min":0,"x_max":0,"o":"m 928 972 l 735 972 l 478 372 l 222 972 l 28 972 l 478 -33 z "},"W":{"ha":1288,"x_min":0,"x_max":0,"o":"m 1082 972 l 888 404 l 644 1006 l 400 404 l 207 972 l 28 972 l 385 -33 l 644 600 l 903 -33 l 1260 972 z "},"Ẃ":{"ha":1288,"x_min":0,"x_max":0,"o":"m 707 1303 l 594 1071 l 686 1071 l 869 1303 z m 1082 972 l 888 404 l 644 1006 l 400 404 l 207 972 l 28 972 l 385 -33 l 644 600 l 903 -33 l 1260 972 z "},"Ŵ":{"ha":1288,"x_min":0,"x_max":0,"o":"m 756 1071 l 890 1071 l 715 1303 l 575 1303 l 399 1071 l 529 1071 l 644 1200 z m 1082 972 l 888 404 l 644 1006 l 400 404 l 207 972 l 28 972 l 385 -33 l 644 600 l 903 -33 l 1260 972 z "},"Ẅ":{"ha":1288,"x_min":0,"x_max":0,"o":"m 554 1174 b 457 1076 554 1119 510 1076 b 360 1174 403 1076 360 1119 b 457 1271 360 1226 403 1271 b 554 1174 510 1271 554 1226 z m 928 1174 b 831 1076 928 1119 883 1076 b 733 1174 776 1076 733 1119 b 831 1271 733 1226 776 1271 b 928 1174 883 1271 928 1226 z m 1082 972 l 888 404 l 644 1006 l 400 404 l 207 972 l 28 972 l 385 -33 l 644 600 l 903 -33 l 1260 972 z "},"Ẁ":{"ha":1288,"x_min":0,"x_max":0,"o":"m 582 1303 l 418 1303 l 601 1071 l 693 1071 z m 1082 972 l 888 404 l 644 1006 l 400 404 l 207 972 l 28 972 l 385 -33 l 644 600 l 903 -33 l 1260 972 z "},"X":{"ha":871,"x_min":0,"x_max":0,"o":"m 843 974 l 642 974 l 436 650 l 231 974 l 28 974 l 335 486 l 28 -1 l 231 -1 l 436 322 l 642 -1 l 843 -1 l 536 486 z "},"Y":{"ha":863,"x_min":0,"x_max":0,"o":"m 835 972 l 642 972 l 432 583 l 222 972 l 28 972 l 344 397 l 344 0 l 518 0 l 518 397 z "},"Ý":{"ha":879,"x_min":0,"x_max":0,"o":"m 508 1303 l 396 1071 l 488 1071 l 671 1303 z m 835 972 l 642 972 l 432 583 l 222 972 l 28 972 l 344 397 l 344 0 l 518 0 l 518 397 z "},"Ŷ":{"ha":863,"x_min":0,"x_max":0,"o":"m 543 1071 l 678 1071 l 503 1303 l 363 1303 l 186 1071 l 317 1071 l 432 1200 z m 835 972 l 642 972 l 432 583 l 222 972 l 28 972 l 344 397 l 344 0 l 518 0 l 518 397 z "},"Ÿ":{"ha":863,"x_min":0,"x_max":0,"o":"m 342 1174 b 244 1076 342 1119 299 1076 b 147 1174 192 1076 147 1119 b 244 1271 147 1226 192 1271 b 342 1174 299 1271 342 1226 z m 715 1174 b 618 1076 715 1119 672 1076 b 521 1174 565 1076 521 1119 b 618 1271 521 1226 565 1271 b 715 1174 672 1271 715 1226 z m 835 972 l 642 972 l 432 583 l 222 972 l 28 972 l 344 397 l 344 0 l 518 0 l 518 397 z "},"Ỳ":{"ha":863,"x_min":0,"x_max":0,"o":"m 369 1303 l 207 1303 l 390 1071 l 482 1071 z m 835 972 l 642 972 l 432 583 l 222 972 l 28 972 l 344 397 l 344 0 l 518 0 l 518 397 z "},"Z":{"ha":899,"x_min":0,"x_max":0,"o":"m 344 154 l 838 974 l 126 974 l 126 819 l 554 819 l 61 0 l 838 0 l 838 154 z "},"Ź":{"ha":901,"x_min":0,"x_max":0,"o":"m 513 1303 l 401 1071 l 493 1071 l 676 1303 z m 346 154 l 839 974 l 128 974 l 128 819 l 556 819 l 63 0 l 839 0 l 839 154 z "},"Ž":{"ha":901,"x_min":0,"x_max":0,"o":"m 611 1303 l 500 1174 l 385 1303 l 254 1303 l 431 1071 l 571 1071 l 746 1303 z m 344 154 l 838 974 l 126 974 l 126 819 l 554 819 l 61 0 l 838 0 l 838 154 z "},"Ż":{"ha":901,"x_min":0,"x_max":0,"o":"m 565 1190 b 468 1093 565 1136 521 1093 b 371 1190 414 1093 371 1136 b 468 1288 371 1243 414 1288 b 565 1190 521 1288 565 1243 z m 346 154 l 839 974 l 128 974 l 128 819 l 556 819 l 63 0 l 839 0 l 839 154 z "},"a":{"ha":832,"x_min":0,"x_max":0,"o":"m 406 681 b 49 324 208 681 49 521 b 406 -33 49 126 208 -33 b 608 44 485 -33 556 -4 l 608 -33 l 763 -33 l 763 324 b 406 681 763 521 603 681 z m 406 121 b 203 324 293 121 203 211 b 406 526 203 436 293 526 b 608 324 518 526 608 436 b 406 121 608 211 518 121 z "},"á":{"ha":833,"x_min":0,"x_max":0,"o":"m 472 972 l 360 740 l 451 740 l 635 972 z m 406 681 b 49 324 208 681 49 521 b 406 -33 49 126 208 -33 b 608 44 485 -33 556 -4 l 608 -33 l 763 -33 l 763 324 b 406 681 763 521 603 681 z m 406 121 b 203 324 293 121 203 211 b 406 526 203 436 293 526 b 608 324 518 526 608 436 b 406 121 608 211 518 121 z "},"ă":{"ha":833,"x_min":0,"x_max":0,"o":"m 579 961 b 406 788 579 865 501 788 b 232 961 310 788 232 865 l 267 961 b 406 822 267 885 328 822 b 544 961 482 822 544 885 z m 406 681 b 49 324 208 681 49 521 b 406 -33 49 126 208 -33 b 608 44 485 -33 556 -4 l 608 -33 l 763 -33 l 763 324 b 406 681 763 521 603 681 z m 406 121 b 203 324 293 121 203 211 b 406 526 203 436 293 526 b 608 324 518 526 608 436 b 406 121 608 211 518 121 z "},"ǎ":{"ha":832,"x_min":0,"x_max":0,"o":"m 517 972 l 406 843 l 292 972 l 160 972 l 336 740 l 476 740 l 651 972 z m 406 681 b 49 324 208 681 49 521 b 406 -33 49 126 208 -33 b 608 44 485 -33 556 -4 l 608 -33 l 763 -33 l 763 324 b 406 681 763 521 603 681 z m 406 121 b 203 324 293 121 203 211 b 406 526 203 436 293 526 b 608 324 518 526 608 436 b 406 121 608 211 518 121 z "},"â":{"ha":833,"x_min":0,"x_max":0,"o":"m 517 740 l 651 740 l 476 972 l 336 972 l 160 740 l 292 740 l 406 869 z m 406 681 b 49 324 208 681 49 521 b 406 -33 49 126 208 -33 b 608 44 485 -33 556 -4 l 608 -33 l 763 -33 l 763 324 b 406 681 763 521 603 681 z m 406 121 b 203 324 293 121 203 211 b 406 526 203 436 293 526 b 608 324 518 526 608 436 b 406 121 608 211 518 121 z "},"ä":{"ha":832,"x_min":0,"x_max":0,"o":"m 315 857 b 218 760 315 803 272 760 b 121 857 165 760 121 803 b 218 954 121 910 165 954 b 315 857 272 954 315 910 z m 689 857 b 592 760 689 803 646 760 b 494 857 539 760 494 803 b 592 954 494 910 539 954 b 689 857 646 954 689 910 z m 406 681 b 49 324 208 681 49 521 b 406 -33 49 126 208 -33 b 608 44 485 -33 556 -4 l 608 -33 l 763 -33 l 763 324 b 406 681 763 521 603 681 z m 406 121 b 203 324 293 121 203 211 b 406 526 203 436 293 526 b 608 324 518 526 608 436 b 406 121 608 211 518 121 z "},"à":{"ha":832,"x_min":0,"x_max":0,"o":"m 342 974 l 179 974 l 363 742 l 454 742 z m 406 681 b 49 324 208 681 49 521 b 406 -33 49 126 208 -33 b 608 44 485 -33 556 -4 l 608 -33 l 763 -33 l 763 324 b 406 681 763 521 603 681 z m 406 121 b 203 324 293 121 203 211 b 406 526 203 436 293 526 b 608 324 518 526 608 436 b 406 121 608 211 518 121 z "},"ā":{"ha":833,"x_min":0,"x_max":0,"o":"m 638 772 l 638 901 l 176 901 l 176 772 z m 406 681 b 49 324 208 681 49 521 b 406 -33 49 126 208 -33 b 608 44 485 -33 556 -4 l 608 -33 l 763 -33 l 763 324 b 406 681 763 521 603 681 z m 406 121 b 203 324 293 121 203 211 b 406 526 203 436 293 526 b 608 324 518 526 608 436 b 406 121 608 211 518 121 z "},"ą":{"ha":832,"x_min":0,"x_max":0,"o":"m 406 681 b 49 324 208 681 49 521 b 406 -33 49 126 208 -33 b 596 40 481 -33 547 -6 l 596 1 b 492 -178 503 -47 471 -119 b 639 -262 513 -231 567 -262 b 763 -224 711 -262 763 -224 l 711 -140 b 661 -150 711 -140 685 -151 b 625 -119 646 -150 626 -137 b 763 0 621 -82 668 -47 l 763 324 b 406 681 763 521 603 681 z m 406 121 b 203 324 293 121 203 211 b 406 526 203 436 293 526 b 608 324 518 526 608 436 b 406 121 608 211 518 121 z "},"å":{"ha":832,"x_min":0,"x_max":0,"o":"m 539 863 b 406 728 539 788 479 728 b 271 863 331 728 271 788 b 406 996 271 936 331 996 b 539 863 479 996 539 936 z m 460 863 b 406 917 460 893 436 917 b 350 863 374 917 350 893 b 406 807 350 831 374 807 b 460 863 436 807 460 831 z m 406 681 b 49 324 208 681 49 521 b 406 -33 49 126 208 -33 b 608 44 485 -33 556 -4 l 608 -33 l 763 -33 l 763 324 b 406 681 763 521 603 681 z m 406 121 b 203 324 293 121 203 211 b 406 526 203 436 293 526 b 608 324 518 526 608 436 b 406 121 608 211 518 121 z "},"ã":{"ha":832,"x_min":0,"x_max":0,"o":"m 435 904 b 607 933 521 872 576 901 l 682 853 b 376 783 601 740 496 739 b 203 754 288 817 235 788 l 128 836 b 435 904 192 929 289 960 z m 406 681 b 49 324 208 681 49 521 b 406 -33 49 126 208 -33 b 608 44 485 -33 556 -4 l 608 -33 l 763 -33 l 763 324 b 406 681 763 521 603 681 z m 406 121 b 203 324 293 121 203 211 b 406 526 203 436 293 526 b 608 324 518 526 608 436 b 406 121 608 211 518 121 z "},"æ":{"ha":1378,"x_min":0,"x_max":0,"o":"m 1322 324 b 965 681 1322 521 1163 681 b 686 536 849 681 747 624 b 406 681 624 624 521 681 b 49 324 208 681 49 521 b 406 -33 49 126 208 -33 b 608 44 485 -33 556 -4 l 608 -33 l 763 -33 l 763 43 b 965 -33 815 -4 886 -33 b 1182 39 1046 -33 1121 -7 l 1093 156 b 965 113 1057 129 1014 113 b 764 275 869 113 785 179 l 1319 275 b 1322 324 1321 290 1322 307 z m 764 381 b 965 535 788 469 869 535 b 1167 381 1061 535 1143 469 z m 406 121 b 203 324 293 121 203 211 b 406 526 203 436 293 526 b 608 324 518 526 608 436 b 406 121 608 211 518 121 z "},"b":{"ha":832,"x_min":0,"x_max":0,"o":"m 426 681 b 224 603 349 681 276 650 l 224 972 l 69 972 l 69 324 b 426 -33 69 126 229 -33 b 783 324 624 -33 783 126 b 426 681 783 521 624 681 z m 426 121 b 224 324 314 121 224 211 b 426 526 224 436 314 526 b 629 324 539 526 629 436 b 426 121 629 211 539 121 z "},"c":{"ha":775,"x_min":0,"x_max":0,"o":"m 597 215 b 425 121 560 158 497 121 b 222 322 314 121 222 211 b 425 524 222 433 314 524 b 597 429 497 524 560 488 l 726 511 b 425 678 664 611 551 678 b 69 322 229 678 69 518 b 425 -33 69 126 229 -33 b 726 135 551 -33 664 33 z "},"ć":{"ha":833,"x_min":0,"x_max":0,"o":"m 492 972 l 379 740 l 471 740 l 654 972 z m 597 215 b 425 121 560 158 497 121 b 222 322 314 121 222 211 b 425 524 222 433 314 524 b 597 429 497 524 560 488 l 726 511 b 425 678 664 611 551 678 b 69 322 229 678 69 518 b 425 -33 69 126 229 -33 b 726 135 551 -33 664 33 z "},"č":{"ha":775,"x_min":0,"x_max":0,"o":"m 533 972 l 422 843 l 307 972 l 176 972 l 353 740 l 493 740 l 668 972 z m 597 215 b 425 121 560 158 497 121 b 222 322 314 121 222 211 b 425 524 222 433 314 524 b 597 429 497 524 560 488 l 726 511 b 425 678 664 611 551 678 b 69 322 229 678 69 518 b 425 -33 69 126 229 -33 b 726 135 551 -33 664 33 z "},"ç":{"ha":775,"x_min":0,"x_max":0,"o":"m 425 121 b 222 322 314 121 222 211 b 425 524 222 433 314 524 b 597 429 497 524 560 488 l 726 511 b 425 678 664 611 551 678 b 69 322 229 678 69 518 b 347 -25 69 153 189 11 l 322 -75 l 322 -133 b 393 -133 335 -132 372 -131 b 453 -183 424 -140 453 -154 b 385 -232 453 -214 422 -229 b 269 -222 343 -235 269 -222 l 269 -308 b 435 -335 269 -308 339 -340 b 592 -189 525 -329 592 -276 b 444 -56 592 -110 528 -62 l 456 -32 b 726 135 569 -22 669 42 l 597 215 b 425 121 560 158 497 121 z "},"ċ":{"ha":833,"x_min":0,"x_max":0,"o":"m 518 857 b 421 760 518 803 475 760 b 324 857 368 760 324 803 b 421 954 324 910 368 954 b 518 857 475 954 518 910 z m 597 215 b 425 121 560 158 497 121 b 222 322 314 121 222 211 b 425 524 222 433 314 524 b 597 429 497 524 560 488 l 726 511 b 425 678 664 611 551 678 b 69 322 229 678 69 518 b 425 -33 69 126 229 -33 b 726 135 551 -33 664 33 z "},"d":{"ha":851,"x_min":0,"x_max":0,"o":"m 614 972 l 614 601 b 413 679 561 650 490 679 b 56 324 215 679 56 519 b 413 -33 56 126 215 -33 b 768 324 608 -33 768 126 l 768 972 z m 413 121 b 210 324 300 121 210 211 b 413 525 210 435 300 525 b 614 324 524 525 614 435 b 413 121 614 211 524 121 z "},"ð":{"ha":853,"x_min":0,"x_max":0,"o":"m 769 325 b 692 585 769 419 742 511 l 542 806 l 618 828 l 582 951 l 465 917 l 428 972 l 221 972 l 292 867 l 139 822 l 175 699 l 368 754 l 418 681 l 413 681 b 56 324 215 681 56 521 b 413 -35 56 126 215 -35 b 769 324 611 -35 769 126 z m 413 119 b 210 324 301 119 210 211 b 413 526 210 435 300 526 b 615 324 522 526 615 438 b 413 119 615 211 525 119 z "},"ď":{"ha":1036,"x_min":0,"x_max":0,"o":"m 614 972 l 614 601 b 413 679 561 650 490 679 b 56 324 215 679 56 519 b 413 -33 56 126 215 -33 b 768 324 608 -33 768 126 l 768 972 z m 843 972 l 811 740 l 896 740 l 982 972 z m 413 121 b 210 324 300 121 210 211 b 413 525 210 435 300 525 b 614 324 524 525 614 435 b 413 121 614 211 524 121 z "},"đ":{"ha":896,"x_min":0,"x_max":0,"o":"m 851 889 l 768 889 l 768 972 l 614 972 l 614 889 l 390 889 l 390 760 l 614 760 l 614 601 b 413 679 561 650 490 679 b 56 324 215 679 56 519 b 413 -33 56 126 215 -33 b 768 324 608 -33 768 126 l 768 760 l 851 760 z m 413 121 b 210 324 300 121 210 211 b 413 525 210 435 300 525 b 614 324 524 525 614 435 b 413 121 614 211 524 121 z "},"e":{"ha":825,"x_min":0,"x_max":0,"o":"m 769 324 b 413 681 769 521 610 681 b 56 324 215 681 56 521 b 413 -33 56 126 215 -33 b 629 39 493 -33 568 -7 l 540 156 b 413 113 504 129 461 113 b 210 275 314 113 231 182 l 767 275 b 769 324 768 290 769 307 z m 413 535 b 614 381 508 535 590 469 l 211 381 b 413 535 235 469 317 535 z "},"é":{"ha":825,"x_min":0,"x_max":0,"o":"m 476 972 l 365 740 l 457 740 l 640 972 z m 769 324 b 413 681 769 521 610 681 b 56 324 215 681 56 521 b 413 -33 56 126 215 -33 b 629 39 493 -33 568 -7 l 540 156 b 413 113 504 129 461 113 b 210 275 314 113 231 182 l 767 275 b 769 324 768 290 769 307 z m 413 535 b 614 381 508 535 590 469 l 211 381 b 413 535 235 469 317 535 z "},"ě":{"ha":825,"x_min":0,"x_max":0,"o":"m 522 972 l 411 843 l 297 972 l 165 972 l 342 740 l 482 740 l 657 972 z m 769 324 b 413 681 769 521 610 681 b 56 324 215 681 56 521 b 413 -33 56 126 215 -33 b 629 39 493 -33 568 -7 l 540 156 b 413 113 504 129 461 113 b 210 275 314 113 231 182 l 767 275 b 769 324 768 290 769 307 z m 413 535 b 614 381 508 535 590 469 l 211 381 b 413 535 235 469 317 535 z "},"ê":{"ha":825,"x_min":0,"x_max":0,"o":"m 524 740 l 658 740 l 483 972 l 343 972 l 167 740 l 299 740 l 413 869 z m 769 324 b 413 681 769 521 610 681 b 56 324 215 681 56 521 b 413 -33 56 126 215 -33 b 629 39 493 -33 568 -7 l 540 156 b 413 113 504 129 461 113 b 210 275 314 113 231 182 l 767 275 b 769 324 768 290 769 307 z m 413 535 b 614 381 508 535 590 469 l 211 381 b 413 535 235 469 317 535 z "},"ë":{"ha":825,"x_min":0,"x_max":0,"o":"m 322 843 b 225 746 322 789 279 746 b 128 843 172 746 128 789 b 225 940 128 896 172 940 b 322 843 279 940 322 896 z m 696 843 b 599 746 696 789 653 746 b 501 843 546 746 501 789 b 599 940 501 896 546 940 b 696 843 653 940 696 896 z m 769 324 b 413 681 769 521 610 681 b 56 324 215 681 56 521 b 413 -33 56 126 215 -33 b 629 39 493 -33 568 -7 l 540 156 b 413 113 504 129 461 113 b 210 275 314 113 231 182 l 767 275 b 769 324 768 290 769 307 z m 413 535 b 614 381 508 535 590 469 l 211 381 b 413 535 235 469 317 535 z "},"ė":{"ha":825,"x_min":0,"x_max":0,"o":"m 508 857 b 411 760 508 803 465 760 b 314 857 358 760 314 803 b 411 954 314 910 358 954 b 508 857 465 954 508 910 z m 769 324 b 413 681 769 521 610 681 b 56 324 215 681 56 521 b 413 -33 56 126 215 -33 b 629 39 493 -33 568 -7 l 540 156 b 413 113 504 129 461 113 b 210 275 314 113 231 182 l 767 275 b 769 324 768 290 769 307 z m 413 535 b 614 381 508 535 590 469 l 211 381 b 413 535 235 469 317 535 z "},"è":{"ha":825,"x_min":0,"x_max":0,"o":"m 347 972 l 185 972 l 368 740 l 460 740 z m 769 324 b 413 681 769 521 610 681 b 56 324 215 681 56 521 b 413 -33 56 126 215 -33 b 629 39 493 -33 568 -7 l 540 156 b 413 113 504 129 461 113 b 210 275 314 113 231 182 l 767 275 b 769 324 768 290 769 307 z m 413 535 b 614 381 508 535 590 469 l 211 381 b 413 535 235 469 317 535 z "},"ē":{"ha":825,"x_min":0,"x_max":0,"o":"m 643 772 l 643 901 l 182 901 l 182 772 z m 769 324 b 413 681 769 521 610 681 b 56 324 215 681 56 521 b 413 -33 56 126 215 -33 b 629 39 493 -33 568 -7 l 540 156 b 413 113 504 129 461 113 b 210 275 314 113 231 182 l 767 275 b 769 324 768 290 769 307 z m 413 535 b 614 381 508 535 590 469 l 211 381 b 413 535 235 469 317 535 z "},"ę":{"ha":824,"x_min":0,"x_max":0,"o":"m 768 322 b 413 679 768 519 608 679 b 56 322 215 679 56 519 b 399 -33 56 131 208 -26 b 425 -32 408 -33 417 -33 b 386 -178 385 -75 369 -132 b 533 -262 406 -231 461 -262 b 657 -224 604 -262 657 -224 l 604 -140 b 556 -150 604 -140 579 -151 b 518 -119 539 -150 519 -139 b 628 39 515 -79 550 -33 l 540 156 b 413 113 504 128 460 113 b 210 274 313 113 231 181 l 765 274 b 768 322 767 289 768 306 z m 211 379 b 413 533 235 468 317 533 b 613 379 508 533 589 468 z "},"f":{"ha":422,"x_min":0,"x_max":0,"o":"m 349 853 b 381 847 360 853 371 850 l 381 1004 b 349 1006 371 1006 360 1006 b 56 714 188 1006 56 875 l 56 0 l 210 0 l 210 511 l 381 511 l 381 649 l 210 649 l 210 714 b 349 853 210 790 272 853 z "},"g":{"ha":853,"x_min":0,"x_max":0,"o":"m 413 681 b 56 324 215 681 56 521 b 413 -35 56 126 215 -35 b 615 44 492 -35 563 -4 l 615 -6 b 421 -196 613 -111 528 -196 b 381 -192 407 -196 393 -194 l 381 -319 b 444 -326 401 -324 422 -326 b 769 -1 624 -326 769 -181 l 769 324 b 413 681 769 521 610 681 z m 413 121 b 210 324 300 121 210 211 b 413 526 210 436 300 526 b 615 324 525 526 615 436 b 413 121 615 211 525 121 z "},"ğ":{"ha":853,"x_min":0,"x_max":0,"o":"m 586 961 b 413 788 586 865 508 788 b 239 961 317 788 239 865 l 274 961 b 413 822 274 885 335 822 b 551 961 489 822 551 885 z m 413 681 b 56 324 215 681 56 521 b 413 -35 56 126 215 -35 b 615 44 492 -35 563 -4 l 615 -6 b 421 -196 613 -111 528 -196 b 381 -192 407 -196 393 -194 l 381 -319 b 444 -326 401 -324 422 -326 b 769 -1 624 -326 769 -181 l 769 324 b 413 681 769 521 610 681 z m 413 121 b 210 324 300 121 210 211 b 413 526 210 436 300 526 b 615 324 525 526 615 436 b 413 121 615 211 525 121 z "},"ģ":{"ha":853,"x_min":0,"x_max":0,"o":"m 482 767 l 514 999 l 429 999 l 343 767 z m 413 681 b 56 324 215 681 56 521 b 413 -35 56 126 215 -35 b 615 44 492 -35 563 -4 l 615 -6 b 421 -196 613 -111 528 -196 b 381 -192 407 -196 393 -194 l 381 -319 b 444 -326 401 -324 422 -326 b 769 -1 624 -326 769 -181 l 769 324 b 413 681 769 521 610 681 z m 413 121 b 210 324 300 121 210 211 b 413 526 210 436 300 526 b 615 324 525 526 615 436 b 413 121 615 211 525 121 z "},"ġ":{"ha":833,"x_min":0,"x_max":0,"o":"m 511 843 b 414 746 511 789 467 746 b 317 843 360 746 317 789 b 414 940 317 896 360 940 b 511 843 467 940 511 896 z m 413 681 b 56 324 215 681 56 521 b 413 -35 56 126 215 -35 b 615 44 492 -35 563 -4 l 615 -6 b 421 -196 613 -111 528 -196 b 381 -192 407 -196 393 -194 l 381 -319 b 444 -326 401 -324 422 -326 b 769 -1 624 -326 769 -181 l 769 324 b 413 681 769 521 610 681 z m 413 121 b 210 324 300 121 210 211 b 413 526 210 436 300 526 b 615 324 525 526 615 436 b 413 121 615 211 525 121 z "},"h":{"ha":822,"x_min":0,"x_max":0,"o":"m 414 681 b 244 618 349 681 289 657 l 244 972 l 90 972 l 90 0 l 244 0 l 244 358 b 414 526 244 450 321 526 b 585 357 507 526 585 450 l 585 0 l 739 0 l 738 357 b 414 681 738 536 593 681 z "},"ħ":{"ha":822,"x_min":0,"x_max":0,"o":"m 739 0 l 738 357 b 414 681 738 536 593 681 b 244 618 349 681 289 657 l 244 760 l 468 760 l 468 889 l 244 889 l 244 972 l 90 972 l 90 889 l 7 889 l 7 760 l 90 760 l 90 0 l 244 0 l 244 358 b 414 526 244 450 321 526 b 585 357 507 526 585 450 l 585 0 z "},"i":{"ha":333,"x_min":0,"x_max":0,"o":"m 264 876 b 167 779 264 822 221 779 b 69 876 113 779 69 822 b 167 974 69 929 113 974 b 264 876 221 974 264 929 z m 244 649 l 89 649 l 89 1 l 244 1 z "},"ı":{"ha":294,"x_min":0,"x_max":0,"o":"m 225 649 l 69 649 l 69 1 l 225 1 z "},"í":{"ha":326,"x_min":0,"x_max":0,"o":"m 211 972 l 100 740 l 192 740 l 375 972 z m 225 649 l 69 649 l 69 1 l 225 1 z "},"ǐ":{"ha":422,"x_min":0,"x_max":0,"o":"m 329 972 l 218 843 l 103 972 l -29 972 l 149 740 l 289 740 l 464 972 z m 296 649 l 140 649 l 140 1 l 296 1 z "},"î":{"ha":436,"x_min":0,"x_max":0,"o":"m 329 740 l 464 740 l 289 972 l 149 972 l -28 740 l 104 740 l 218 869 z m 296 649 l 142 649 l 142 1 l 296 1 z "},"ï":{"ha":513,"x_min":0,"x_max":0,"o":"m 167 843 b 69 746 167 789 124 746 b -28 843 17 746 -28 789 b 69 940 -28 896 17 940 b 167 843 124 940 167 896 z m 540 843 b 443 746 540 789 497 746 b 346 843 390 746 346 789 b 443 940 346 896 390 940 b 540 843 497 940 540 896 z m 335 649 l 179 649 l 179 1 l 335 1 z "},"ì":{"ha":303,"x_min":0,"x_max":0,"o":"m 94 972 l -69 972 l 114 740 l 206 740 z m 233 649 l 79 649 l 79 1 l 233 1 z "},"ī":{"ha":461,"x_min":0,"x_max":0,"o":"m 461 772 l 461 901 l 0 901 l 0 772 z m 310 649 l 154 649 l 154 1 l 310 1 z "},"į":{"ha":351,"x_min":0,"x_max":0,"o":"m 185 779 b 282 876 239 779 282 822 b 185 974 282 929 239 974 b 89 876 132 974 89 929 b 185 779 89 822 132 779 z m 108 0 b -8 -178 13 -36 -31 -119 b 139 -262 13 -229 67 -262 b 263 -224 211 -262 263 -224 l 211 -140 b 161 -150 211 -140 185 -151 b 125 -119 146 -150 126 -137 b 263 0 121 -82 168 -47 l 263 649 l 108 649 z "},"j":{"ha":381,"x_min":0,"x_max":0,"o":"m 206 779 b 304 876 260 779 304 824 b 206 974 304 931 260 974 b 110 876 151 974 110 931 b 206 779 110 824 151 779 z m 129 649 l 129 0 b -6 -181 129 -87 72 -158 b -37 -187 -17 -185 -28 -186 l -37 -314 b 11 -312 -22 -314 -6 -315 b 283 0 164 -290 283 -161 l 283 649 z "},"k":{"ha":724,"x_min":0,"x_max":0,"o":"m 703 0 l 426 357 l 671 649 l 488 649 l 246 358 l 246 972 l 90 972 l 90 0 l 246 0 l 246 356 l 519 0 z "},"ķ":{"ha":724,"x_min":0,"x_max":0,"o":"m 426 357 l 671 649 l 488 649 l 246 358 l 246 972 l 90 972 l 90 0 l 246 0 l 246 356 l 519 0 l 703 0 z m 275 -318 l 360 -318 l 446 -86 l 307 -86 z "},"l":{"ha":268,"x_min":0,"x_max":0,"o":"m 211 0 l 57 0 l 57 972 l 211 972 z "},"ĺ":{"ha":418,"x_min":0,"x_max":0,"o":"m 196 1303 l 85 1071 l 176 1071 l 360 1303 z m 211 0 l 56 0 l 56 972 l 211 972 z "},"ľ":{"ha":439,"x_min":0,"x_max":0,"o":"m 211 0 l 57 0 l 57 972 l 211 972 z m 286 972 l 254 740 l 339 740 l 425 972 z "},"ļ":{"ha":268,"x_min":0,"x_max":0,"o":"m 211 0 l 57 0 l 57 972 l 211 972 z m 65 -86 l 33 -318 l 118 -318 l 204 -86 z "},"ł":{"ha":432,"x_min":0,"x_max":0,"o":"m 376 644 l 294 610 l 294 972 l 139 972 l 139 544 l 56 510 l 56 381 l 139 415 l 139 0 l 294 0 l 294 481 l 376 515 z "},"m":{"ha":1179,"x_min":0,"x_max":0,"o":"m 806 681 b 593 582 721 681 643 643 b 381 681 543 643 467 681 b 90 392 221 681 90 551 l 90 0 l 244 0 l 244 392 b 381 529 244 467 304 529 b 517 392 456 529 517 467 l 517 0 l 671 0 l 671 392 b 806 529 671 467 731 529 b 942 392 882 529 942 467 l 942 0 l 1096 0 l 1096 392 b 806 681 1096 551 967 681 z "},"n":{"ha":815,"x_min":0,"x_max":0,"o":"m 408 681 b 83 357 229 681 83 536 l 83 0 l 239 0 l 239 357 b 408 528 239 450 314 528 b 579 357 501 528 579 450 l 579 0 l 732 0 l 732 357 b 408 681 732 536 588 681 z "},"ń":{"ha":815,"x_min":0,"x_max":0,"o":"m 475 972 l 364 740 l 456 740 l 639 972 z m 408 681 b 83 357 229 681 83 536 l 83 0 l 239 0 l 239 357 b 408 528 239 450 314 528 b 579 357 501 528 579 450 l 579 0 l 732 0 l 732 357 b 408 681 732 536 588 681 z "},"ň":{"ha":815,"x_min":0,"x_max":0,"o":"m 518 972 l 407 843 l 293 972 l 161 972 l 338 740 l 478 740 l 653 972 z m 408 681 b 83 357 229 681 83 536 l 83 0 l 239 0 l 239 357 b 408 528 239 450 314 528 b 579 357 501 528 579 450 l 579 0 l 732 0 l 732 357 b 408 681 732 536 588 681 z "},"ņ":{"ha":815,"x_min":0,"x_max":0,"o":"m 408 681 b 83 357 229 681 83 536 l 83 0 l 239 0 l 239 357 b 408 528 239 450 314 528 b 579 357 501 528 579 450 l 579 0 l 732 0 l 732 357 b 408 681 732 536 588 681 z m 347 -86 l 315 -318 l 400 -318 l 486 -86 z "},"ŋ":{"ha":815,"x_min":0,"x_max":0,"o":"m 408 681 b 83 357 229 681 83 536 l 83 0 l 239 0 l 239 357 b 408 528 239 450 314 528 b 579 357 501 528 579 450 l 579 0 b 444 -181 579 -87 522 -158 b 413 -187 433 -185 422 -186 l 413 -314 b 460 -312 428 -314 444 -315 b 732 0 614 -290 732 -161 l 732 357 b 408 681 732 536 588 681 z "},"ñ":{"ha":815,"x_min":0,"x_max":0,"o":"m 438 904 b 610 933 524 872 579 901 l 685 853 b 379 783 604 740 499 739 b 206 754 290 817 238 788 l 131 836 b 438 904 194 929 292 960 z m 408 681 b 83 357 229 681 83 536 l 83 0 l 239 0 l 239 357 b 408 528 239 450 314 528 b 579 357 501 528 579 450 l 579 0 l 732 0 l 732 357 b 408 681 732 536 588 681 z "},"o":{"ha":825,"x_min":0,"x_max":0,"o":"m 769 324 b 413 -33 769 126 611 -33 b 56 324 215 -33 56 126 b 413 681 56 521 215 681 b 769 324 611 681 769 521 z m 413 526 b 210 324 301 526 210 436 b 413 121 210 213 301 121 b 615 324 525 121 615 213 b 413 526 615 436 525 526 z "},"ó":{"ha":825,"x_min":0,"x_max":0,"o":"m 479 972 l 367 740 l 458 740 l 642 972 z m 769 324 b 413 -33 769 126 611 -33 b 56 324 215 -33 56 126 b 413 681 56 521 215 681 b 769 324 611 681 769 521 z m 413 526 b 210 324 301 526 210 436 b 413 121 210 213 301 121 b 615 324 525 121 615 213 b 413 526 615 436 525 526 z "},"ǒ":{"ha":825,"x_min":0,"x_max":0,"o":"m 524 972 l 413 843 l 299 972 l 167 972 l 343 740 l 483 740 l 658 972 z m 769 324 b 413 -33 769 126 611 -33 b 56 324 215 -33 56 126 b 413 681 56 521 215 681 b 769 324 611 681 769 521 z m 413 526 b 210 324 301 526 210 436 b 413 121 210 213 301 121 b 615 324 525 121 615 213 b 413 526 615 436 525 526 z "},"ô":{"ha":825,"x_min":0,"x_max":0,"o":"m 525 740 l 660 740 l 485 972 l 344 972 l 168 740 l 300 740 l 414 869 z m 769 324 b 413 -33 769 126 611 -33 b 56 324 215 -33 56 126 b 413 681 56 521 215 681 b 769 324 611 681 769 521 z m 413 526 b 210 324 301 526 210 436 b 413 121 210 213 301 121 b 615 324 525 121 615 213 b 413 526 615 436 525 526 z "},"ö":{"ha":825,"x_min":0,"x_max":0,"o":"m 324 857 b 226 760 324 803 279 760 b 129 857 172 760 129 803 b 226 954 129 910 172 954 b 324 857 279 954 324 910 z m 697 857 b 600 760 697 803 653 760 b 503 857 546 760 503 803 b 600 954 503 910 546 954 b 697 857 653 954 697 910 z m 769 324 b 413 -33 769 126 611 -33 b 56 324 215 -33 56 126 b 413 681 56 521 215 681 b 769 324 611 681 769 521 z m 413 526 b 210 324 301 526 210 436 b 413 121 210 213 301 121 b 615 324 525 121 615 213 b 413 526 615 436 525 526 z "},"ò":{"ha":825,"x_min":0,"x_max":0,"o":"m 346 972 l 183 972 l 367 740 l 458 740 z m 769 324 b 413 -33 769 126 611 -33 b 56 324 215 -33 56 126 b 413 681 56 521 215 681 b 769 324 611 681 769 521 z m 413 526 b 210 324 301 526 210 436 b 413 121 210 213 301 121 b 615 324 525 121 615 213 b 413 526 615 436 525 526 z "},"ő":{"ha":825,"x_min":0,"x_max":0,"o":"m 321 972 l 244 740 l 329 740 l 478 972 z m 556 972 l 479 740 l 564 740 l 711 972 z m 769 324 b 413 -33 769 126 611 -33 b 56 324 215 -33 56 126 b 413 681 56 521 215 681 b 769 324 611 681 769 521 z m 413 526 b 210 324 301 526 210 436 b 413 121 210 213 301 121 b 615 324 525 121 615 213 b 413 526 615 436 525 526 z "},"ō":{"ha":825,"x_min":0,"x_max":0,"o":"m 644 772 l 644 901 l 183 901 l 183 772 z m 769 324 b 413 -33 769 126 611 -33 b 56 324 215 -33 56 126 b 413 681 56 521 215 681 b 769 324 611 681 769 521 z m 413 526 b 210 324 301 526 210 436 b 413 121 210 213 301 121 b 615 324 525 121 615 213 b 413 526 615 436 525 526 z "},"ø":{"ha":825,"x_min":0,"x_max":0,"o":"m 658 583 l 736 694 l 601 694 l 568 646 b 413 681 521 668 468 681 b 56 324 215 681 56 521 b 165 65 56 222 97 131 l 88 -47 l 222 -47 l 257 3 b 413 -33 304 -21 357 -33 b 769 324 611 -33 769 126 b 658 583 769 425 726 518 z m 210 324 b 413 526 210 436 301 526 b 478 515 435 526 457 522 l 256 196 b 210 324 226 231 210 275 z m 413 121 b 346 132 389 121 367 125 l 569 453 b 615 324 597 418 615 374 b 413 121 615 213 525 121 z "},"õ":{"ha":825,"x_min":0,"x_max":0,"o":"m 442 914 b 614 943 528 882 583 911 l 689 863 b 383 793 608 750 503 749 b 210 764 294 826 242 797 l 135 846 b 442 914 199 939 296 969 z m 769 324 b 413 -33 769 126 611 -33 b 56 324 215 -33 56 126 b 413 681 56 521 215 681 b 769 324 611 681 769 521 z m 413 526 b 210 324 301 526 210 436 b 413 121 210 213 301 121 b 615 324 525 121 615 213 b 413 526 615 436 525 526 z "},"œ":{"ha":1385,"x_min":0,"x_max":0,"o":"m 1329 324 b 972 681 1329 521 1169 681 b 693 538 857 681 754 624 b 413 681 631 624 529 681 b 56 324 215 681 56 521 b 413 -33 56 126 215 -33 b 693 110 529 -33 631 24 b 972 -33 754 24 857 -33 b 1189 39 1053 -33 1128 -7 l 1100 156 b 972 113 1064 129 1021 113 b 769 275 874 113 790 182 l 1326 275 b 1329 324 1328 290 1329 307 z m 771 381 b 972 535 794 469 876 535 b 1174 381 1068 535 1150 469 z m 413 121 b 210 324 301 121 210 213 b 413 526 210 436 301 526 b 615 324 525 526 615 436 b 413 121 615 213 525 121 z "},"p":{"ha":860,"x_min":0,"x_max":0,"o":"m 447 681 b 90 324 250 681 90 521 l 90 -325 l 246 -325 l 246 44 b 447 -33 299 -4 369 -33 b 804 324 644 -33 804 126 b 447 681 804 521 644 681 z m 447 122 b 246 324 336 122 246 211 b 447 526 246 436 336 526 b 651 324 560 526 651 436 b 447 122 651 211 560 122 z "},"þ":{"ha":860,"x_min":0,"x_max":0,"o":"m 447 679 b 246 603 369 679 299 650 l 246 972 l 90 972 l 90 -328 l 246 -328 l 246 43 b 447 -36 299 -6 369 -36 b 804 322 644 -36 804 125 b 447 679 804 519 644 679 z m 447 119 b 246 322 336 119 246 210 b 447 525 246 435 336 525 b 651 322 560 525 651 435 b 447 119 651 210 560 119 z "},"q":{"ha":860,"x_min":0,"x_max":0,"o":"m 413 681 b 56 324 215 681 56 521 b 413 -33 56 126 215 -33 b 619 50 494 -33 567 -1 l 619 -325 l 769 -325 l 769 324 b 413 681 769 521 610 681 z m 413 118 b 207 324 299 118 207 210 b 413 531 207 439 299 531 b 619 324 528 531 619 439 b 413 118 619 210 528 118 z "},"r":{"ha":478,"x_min":0,"x_max":0,"o":"m 396 681 b 83 369 224 681 83 542 l 83 0 l 238 0 l 238 369 b 396 528 238 457 308 528 b 436 522 410 528 424 525 l 436 678 b 396 681 422 681 410 681 z "},"ŕ":{"ha":478,"x_min":0,"x_max":0,"o":"m 294 972 l 182 740 l 274 740 l 457 972 z m 396 681 b 83 369 224 681 83 542 l 83 0 l 238 0 l 238 369 b 396 528 238 457 308 528 b 436 522 410 528 424 525 l 436 678 b 396 681 422 681 410 681 z "},"ř":{"ha":499,"x_min":0,"x_max":0,"o":"m 378 972 l 267 843 l 153 972 l 21 972 l 197 740 l 338 740 l 513 972 z m 403 681 b 90 369 229 681 90 542 l 90 0 l 243 0 l 243 369 b 403 528 243 457 314 528 b 443 522 417 528 429 525 l 443 678 b 403 681 429 681 417 681 z "},"ŗ":{"ha":478,"x_min":0,"x_max":0,"o":"m 396 681 b 83 369 224 681 83 542 l 83 0 l 238 0 l 238 369 b 396 528 238 457 308 528 b 436 522 410 528 424 525 l 436 678 b 396 681 422 681 410 681 z m 92 -86 l 60 -318 l 144 -318 l 231 -86 z "},"s":{"ha":632,"x_min":0,"x_max":0,"o":"m 335 408 b 222 485 290 421 222 446 b 329 554 222 518 254 554 b 456 499 378 554 428 532 l 575 564 b 328 685 526 639 440 685 b 75 482 182 685 75 600 b 321 272 75 372 181 317 b 442 179 406 247 442 219 b 321 110 442 129 388 108 b 176 185 263 110 203 151 l 49 107 b 319 -33 100 28 199 -33 b 590 167 474 -33 590 42 b 335 408 590 303 489 360 z "},"ś":{"ha":632,"x_min":0,"x_max":0,"o":"m 396 972 l 285 740 l 376 740 l 560 972 z m 335 408 b 222 485 290 421 222 446 b 329 554 222 518 254 554 b 456 499 378 554 428 532 l 575 564 b 328 685 526 639 440 685 b 75 482 182 685 75 600 b 321 272 75 372 181 317 b 442 179 406 247 442 219 b 321 110 442 129 388 108 b 176 185 263 110 203 151 l 49 107 b 319 -33 100 28 199 -33 b 590 167 474 -33 590 42 b 335 408 590 303 489 360 z "},"š":{"ha":633,"x_min":0,"x_max":0,"o":"m 435 972 l 324 843 l 210 972 l 78 972 l 254 740 l 394 740 l 569 972 z m 335 408 b 222 485 290 421 222 446 b 329 554 222 518 254 554 b 456 499 378 554 428 532 l 575 564 b 328 685 526 639 440 685 b 75 482 182 685 75 600 b 321 272 75 372 181 317 b 442 179 406 247 442 219 b 321 110 442 129 388 108 b 176 185 263 110 203 151 l 49 107 b 319 -33 100 28 199 -33 b 590 167 474 -33 590 42 b 335 408 590 303 489 360 z "},"ş":{"ha":632,"x_min":0,"x_max":0,"o":"m 590 167 b 335 408 590 303 489 360 b 222 485 290 421 222 446 b 329 554 222 518 254 554 b 456 499 378 554 428 532 l 575 564 b 328 685 526 639 440 685 b 75 482 182 685 75 600 b 321 272 75 372 181 317 b 442 179 406 247 442 219 b 321 110 442 129 388 108 b 176 185 263 110 203 151 l 49 107 b 260 -28 92 42 167 -12 l 236 -75 l 236 -133 b 307 -133 249 -132 286 -131 b 367 -183 338 -140 367 -154 b 299 -232 367 -214 336 -229 b 183 -222 257 -235 183 -222 l 183 -308 b 349 -335 183 -308 253 -340 b 506 -189 439 -329 506 -276 b 358 -56 506 -110 442 -62 l 371 -31 b 590 167 499 -15 590 56 z "},"ș":{"ha":632,"x_min":0,"x_max":0,"o":"m 335 408 b 222 485 290 421 222 446 b 329 554 222 518 254 554 b 456 499 378 554 428 532 l 575 564 b 328 685 526 639 440 685 b 75 482 182 685 75 600 b 321 272 75 372 181 317 b 442 179 406 247 442 219 b 321 110 442 129 388 108 b 176 185 263 110 203 151 l 49 107 b 319 -33 100 28 199 -33 b 590 167 474 -33 590 42 b 335 408 590 303 489 360 z m 264 -86 l 232 -318 l 317 -318 l 403 -86 z "},"t":{"ha":703,"x_min":0,"x_max":0,"o":"m 428 649 l 428 972 l 275 972 l 275 649 l 69 649 l 69 511 l 275 511 l 275 0 l 428 0 l 428 511 l 633 511 l 633 649 z "},"ŧ":{"ha":703,"x_min":0,"x_max":0,"o":"m 633 511 l 633 649 l 428 649 l 428 972 l 275 972 l 275 649 l 69 649 l 69 511 l 275 511 l 275 344 l 121 344 l 121 215 l 275 215 l 275 0 l 428 0 l 428 215 l 582 215 l 582 344 l 428 344 l 428 511 z "},"ť":{"ha":708,"x_min":0,"x_max":0,"o":"m 428 649 l 428 972 l 275 972 l 275 649 l 69 649 l 69 511 l 275 511 l 275 0 l 428 0 l 428 511 l 633 511 l 633 649 z m 497 972 l 465 740 l 550 740 l 636 972 z "},"ţ":{"ha":703,"x_min":0,"x_max":0,"o":"m 428 0 l 428 511 l 633 511 l 633 649 l 428 649 l 428 972 l 275 972 l 275 649 l 69 649 l 69 511 l 275 511 l 275 0 l 294 0 l 257 -75 l 257 -133 b 328 -133 269 -132 307 -131 b 388 -183 358 -140 388 -154 b 319 -232 388 -214 357 -229 b 204 -222 278 -235 204 -222 l 204 -308 b 369 -335 204 -308 274 -340 b 526 -189 460 -329 526 -276 b 379 -56 526 -110 463 -62 l 407 0 z "},"ț":{"ha":703,"x_min":0,"x_max":0,"o":"m 428 649 l 428 972 l 275 972 l 275 649 l 69 649 l 69 511 l 275 511 l 275 0 l 428 0 l 428 511 l 633 511 l 633 649 z m 282 -86 l 250 -318 l 335 -318 l 421 -86 z "},"u":{"ha":815,"x_min":0,"x_max":0,"o":"m 83 649 l 83 290 b 408 -33 83 111 229 -33 b 732 290 588 -33 732 111 l 732 649 l 578 649 l 578 290 b 408 121 578 197 501 121 b 238 290 314 121 238 197 l 238 649 z "},"ú":{"ha":815,"x_min":0,"x_max":0,"o":"m 472 972 l 361 740 l 453 740 l 636 972 z m 83 649 l 83 290 b 408 -33 83 111 229 -33 b 732 290 588 -33 732 111 l 732 649 l 578 649 l 578 290 b 408 121 578 197 501 121 b 238 290 314 121 238 197 l 238 649 z "},"ǔ":{"ha":815,"x_min":0,"x_max":0,"o":"m 518 972 l 407 843 l 293 972 l 161 972 l 338 740 l 478 740 l 653 972 z m 83 649 l 83 290 b 408 -33 83 111 229 -33 b 732 290 588 -33 732 111 l 732 649 l 578 649 l 578 290 b 408 121 578 197 501 121 b 238 290 314 121 238 197 l 238 649 z "},"û":{"ha":815,"x_min":0,"x_max":0,"o":"m 519 740 l 654 740 l 479 972 l 339 972 l 163 740 l 294 740 l 408 869 z m 83 649 l 83 290 b 408 -33 83 111 229 -33 b 732 290 588 -33 732 111 l 732 649 l 578 649 l 578 290 b 408 121 578 197 501 121 b 238 290 314 121 238 197 l 238 649 z "},"ü":{"ha":815,"x_min":0,"x_max":0,"o":"m 318 857 b 221 760 318 803 275 760 b 124 857 168 760 124 803 b 221 954 124 910 168 954 b 318 857 275 954 318 910 z m 692 857 b 594 760 692 803 649 760 b 497 857 542 760 497 803 b 594 954 497 910 542 954 b 692 857 649 954 692 910 z m 83 649 l 83 290 b 408 -33 83 111 229 -33 b 732 290 588 -33 732 111 l 732 649 l 578 649 l 578 290 b 408 121 578 197 501 121 b 238 290 314 121 238 197 l 238 649 z "},"ù":{"ha":815,"x_min":0,"x_max":0,"o":"m 350 972 l 188 972 l 371 740 l 463 740 z m 83 649 l 83 290 b 408 -33 83 111 229 -33 b 732 290 588 -33 732 111 l 732 649 l 578 649 l 578 290 b 408 121 578 197 501 121 b 238 290 314 121 238 197 l 238 649 z "},"ű":{"ha":815,"x_min":0,"x_max":0,"o":"m 331 972 l 254 740 l 339 740 l 486 972 z m 564 972 l 488 740 l 572 740 l 721 972 z m 83 649 l 83 290 b 408 -33 83 111 229 -33 b 732 290 588 -33 732 111 l 732 649 l 578 649 l 578 290 b 408 121 578 197 501 121 b 238 290 314 121 238 197 l 238 649 z "},"ū":{"ha":815,"x_min":0,"x_max":0,"o":"m 639 793 l 639 922 l 178 922 l 178 793 z m 83 649 l 83 290 b 408 -33 83 111 229 -33 b 732 290 588 -33 732 111 l 732 649 l 578 649 l 578 290 b 408 121 578 197 501 121 b 238 290 314 121 238 197 l 238 649 z "},"ų":{"ha":815,"x_min":0,"x_max":0,"o":"m 732 290 l 732 649 l 578 649 l 578 290 b 408 121 578 197 501 121 b 238 290 314 121 238 197 l 238 649 l 83 649 l 83 290 b 385 -32 83 119 217 -21 l 400 -32 b 361 -176 365 -72 344 -132 b 508 -261 382 -229 436 -261 b 632 -222 581 -261 632 -222 l 581 -139 b 531 -150 581 -139 554 -150 b 494 -119 515 -149 497 -136 b 615 42 488 -81 536 -28 b 732 290 688 101 732 190 z "},"ů":{"ha":815,"x_min":0,"x_max":0,"o":"m 542 863 b 408 728 542 788 482 728 b 274 863 333 728 274 788 b 408 996 274 936 333 996 b 542 863 482 996 542 936 z m 463 863 b 408 917 463 893 439 917 b 353 863 376 917 353 893 b 408 807 353 831 376 807 b 463 863 439 807 463 831 z m 83 649 l 83 290 b 408 -33 83 111 229 -33 b 732 290 588 -33 732 111 l 732 649 l 578 649 l 578 290 b 408 121 578 197 501 121 b 238 290 314 121 238 197 l 238 649 z "},"v":{"ha":756,"x_min":0,"x_max":0,"o":"m 556 647 l 378 275 l 200 647 l 21 647 l 378 -33 l 735 647 z "},"w":{"ha":1061,"x_min":0,"x_max":0,"o":"m 856 649 l 708 300 l 531 681 l 354 300 l 207 649 l 28 649 l 336 -33 l 531 372 l 725 -33 l 1033 649 z "},"ẃ":{"ha":1061,"x_min":0,"x_max":0,"o":"m 590 972 l 478 740 l 569 740 l 753 972 z m 856 649 l 708 300 l 531 681 l 354 300 l 207 649 l 28 649 l 336 -33 l 531 372 l 725 -33 l 1033 649 z "},"ŵ":{"ha":1061,"x_min":0,"x_max":0,"o":"m 642 740 l 776 740 l 601 972 l 461 972 l 285 740 l 417 740 l 531 869 z m 856 649 l 708 300 l 531 681 l 354 300 l 207 649 l 28 649 l 336 -33 l 531 372 l 725 -33 l 1033 649 z "},"ẅ":{"ha":1061,"x_min":0,"x_max":0,"o":"m 442 843 b 344 746 442 789 399 746 b 247 843 292 746 247 789 b 344 940 247 896 292 940 b 442 843 399 940 442 896 z m 815 843 b 718 746 815 789 772 746 b 621 843 665 746 621 789 b 718 940 621 896 665 940 b 815 843 772 940 815 896 z m 856 649 l 708 300 l 531 681 l 354 300 l 207 649 l 28 649 l 336 -33 l 531 372 l 725 -33 l 1033 649 z "},"ẁ":{"ha":1061,"x_min":0,"x_max":0,"o":"m 468 972 l 304 972 l 488 740 l 579 740 z m 856 649 l 708 300 l 531 681 l 354 300 l 207 649 l 28 649 l 336 -33 l 531 372 l 725 -33 l 1033 649 z "},"x":{"ha":721,"x_min":0,"x_max":0,"o":"m 693 649 l 507 649 l 361 454 l 215 649 l 28 649 l 268 325 l 28 0 l 215 0 l 361 196 l 507 0 l 693 0 l 454 325 z "},"y":{"ha":756,"x_min":0,"x_max":0,"o":"m 564 649 l 379 250 l 192 649 l 21 649 l 294 68 l 110 -325 l 281 -325 l 735 649 z "},"ý":{"ha":756,"x_min":0,"x_max":0,"o":"m 442 972 l 331 740 l 422 740 l 606 972 z m 564 649 l 379 250 l 192 649 l 21 649 l 294 68 l 110 -325 l 281 -325 l 735 649 z "},"ŷ":{"ha":756,"x_min":0,"x_max":0,"o":"m 490 740 l 625 740 l 450 972 l 310 972 l 133 740 l 264 740 l 379 869 z m 564 649 l 379 250 l 192 649 l 21 649 l 294 68 l 110 -325 l 281 -325 l 735 649 z "},"ÿ":{"ha":756,"x_min":0,"x_max":0,"o":"m 289 843 b 192 746 289 789 244 746 b 94 843 138 746 94 789 b 192 940 94 896 138 940 b 289 843 244 940 289 896 z m 663 843 b 565 746 663 789 618 746 b 468 843 511 746 468 789 b 565 940 468 896 511 940 b 663 843 618 940 663 896 z m 564 649 l 379 250 l 192 649 l 21 649 l 294 68 l 110 -325 l 281 -325 l 735 649 z "},"ỳ":{"ha":756,"x_min":0,"x_max":0,"o":"m 318 972 l 156 972 l 339 740 l 431 740 z m 564 649 l 379 250 l 192 649 l 21 649 l 294 68 l 110 -325 l 281 -325 l 735 649 z "},"z":{"ha":744,"x_min":0,"x_max":0,"o":"m 689 649 l 121 649 l 121 511 l 414 511 l 56 0 l 672 0 l 672 138 l 331 138 z "},"ź":{"ha":744,"x_min":0,"x_max":0,"o":"m 453 972 l 340 740 l 432 740 l 615 972 z m 689 649 l 121 649 l 121 511 l 414 511 l 56 0 l 672 0 l 672 138 l 331 138 z "},"ž":{"ha":744,"x_min":0,"x_max":0,"o":"m 508 972 l 397 843 l 282 972 l 151 972 l 328 740 l 468 740 l 643 972 z m 689 649 l 121 649 l 121 511 l 414 511 l 56 0 l 672 0 l 672 138 l 331 138 z "},"ż":{"ha":744,"x_min":0,"x_max":0,"o":"m 496 843 b 399 746 496 789 453 746 b 301 843 346 746 301 789 b 399 940 301 896 346 940 b 496 843 453 940 496 896 z m 689 649 l 121 649 l 121 511 l 414 511 l 56 0 l 672 0 l 672 138 l 331 138 z "},"⁄":{"ha":154,"x_min":0,"x_max":0,"o":"m -115 -32 l -278 -32 l 268 1004 l 432 1004 z "},".":{"ha":368,"x_min":0,"x_max":0,"o":"m 292 74 b 185 -33 292 15 243 -33 b 78 74 125 -33 78 15 b 185 181 78 132 125 181 b 292 74 243 181 292 132 z "},",":{"ha":399,"x_min":0,"x_max":0,"o":"m 156 181 l 69 -292 l 165 -292 l 329 181 z "},":":{"ha":353,"x_min":0,"x_max":0,"o":"m 283 575 b 176 468 283 515 236 468 b 69 575 118 468 69 515 b 176 681 69 633 118 681 b 283 575 236 681 283 633 z m 283 74 b 176 -33 283 15 236 -33 b 69 74 118 -33 69 15 b 176 181 69 132 118 181 b 283 74 236 181 283 132 z "},";":{"ha":415,"x_min":0,"x_max":0,"o":"m 346 578 b 243 475 346 521 299 475 b 140 578 186 475 140 521 b 243 681 140 635 186 681 b 346 578 299 681 346 635 z m 156 181 l 69 -292 l 165 -292 l 329 181 z "},"…":{"ha":368,"x_min":0,"x_max":0,"o":"m 185 181 b 78 74 125 181 78 132 b 185 -33 78 15 125 -33 b 292 74 243 -33 292 15 b 185 181 292 132 243 181 z "},"!":{"ha":350,"x_min":0,"x_max":0,"o":"m 254 972 l 97 972 l 97 243 l 254 243 z m 281 72 b 176 -33 281 14 233 -33 b 69 72 117 -33 69 14 b 176 178 69 131 117 178 b 281 72 233 178 281 131 z "},"¡":{"ha":350,"x_min":0,"x_max":0,"o":"m 281 640 b 176 535 281 582 233 535 b 69 640 117 535 69 582 b 176 746 69 699 117 746 b 281 640 233 746 281 699 z m 254 -260 l 254 471 l 97 471 l 97 -260 z "},"?":{"ha":738,"x_min":0,"x_max":0,"o":"m 469 613 b 511 713 493 636 511 674 b 368 854 511 792 447 854 b 228 713 290 854 228 792 l 69 713 b 368 1004 69 875 204 1004 b 668 713 532 1004 668 875 b 581 510 668 633 639 567 b 447 307 490 418 447 392 l 447 243 l 290 243 l 290 326 b 469 613 290 467 354 497 z m 474 74 b 368 -32 474 15 428 -32 b 264 74 311 -32 264 15 b 368 179 264 132 311 179 b 474 74 428 179 474 132 z "},"¿":{"ha":738,"x_min":0,"x_max":0,"o":"m 264 640 b 369 744 264 697 311 744 b 475 640 428 744 475 697 b 369 533 475 582 428 533 b 264 640 311 533 264 582 z m 269 100 b 228 0 244 76 228 40 b 369 -142 228 -79 290 -142 b 511 0 447 -142 511 -79 l 668 0 b 369 -292 668 -162 533 -292 b 69 0 206 -292 69 -162 b 158 204 69 81 99 146 b 290 407 247 294 290 322 l 290 469 l 449 469 l 449 388 b 269 100 449 247 385 215 z "},"·":{"ha":353,"x_min":0,"x_max":0,"o":"m 283 486 b 176 379 283 426 236 379 b 69 486 118 379 69 426 b 176 592 69 544 118 592 b 283 486 236 592 283 544 z "},"•":{"ha":621,"x_min":0,"x_max":0,"o":"m 489 488 b 310 308 489 390 408 308 b 132 488 211 308 132 390 b 310 664 132 585 211 664 b 489 488 408 664 489 585 z "},"*":{"ha":618,"x_min":0,"x_max":0,"o":"m 549 801 l 492 900 l 365 825 l 367 972 l 253 972 l 254 825 l 128 900 l 69 801 l 199 729 l 69 657 l 128 558 l 254 633 l 253 486 l 367 486 l 365 635 l 492 558 l 549 657 l 419 729 z "},"#":{"ha":936,"x_min":0,"x_max":0,"o":"m 881 600 l 881 738 l 743 738 l 772 972 l 626 972 l 597 738 l 401 738 l 431 972 l 285 972 l 256 738 l 103 738 l 103 600 l 239 600 l 211 374 l 56 374 l 56 236 l 194 236 l 165 0 l 311 0 l 340 236 l 535 236 l 506 0 l 651 0 l 681 236 l 835 236 l 835 374 l 699 374 l 726 600 z m 553 374 l 357 374 l 385 600 l 581 600 z "},"/":{"ha":597,"x_min":0,"x_max":0,"o":"m 218 -33 l 56 -33 l 379 1003 l 542 1003 z "},"\\":{"ha":597,"x_min":0,"x_max":0,"o":"m 379 -33 l 56 1003 l 218 1003 l 542 -33 z "},"(":{"ha":481,"x_min":0,"x_max":0,"o":"m 268 -293 l 411 -225 b 257 439 313 -24 257 201 b 410 1103 257 676 313 901 l 268 1171 b 97 439 160 951 97 703 b 268 -293 97 175 160 -74 z "},")":{"ha":481,"x_min":0,"x_max":0,"o":"m 213 -293 b 383 439 321 -74 383 175 b 213 1171 383 703 321 951 l 71 1103 b 224 439 168 901 224 676 b 69 -225 224 201 168 -24 z "},"{":{"ha":493,"x_min":0,"x_max":0,"o":"m 311 569 l 311 935 b 400 1022 311 982 350 1022 l 424 1022 l 424 1150 l 369 1157 b 151 963 254 1171 151 1079 l 151 614 b 69 504 151 563 118 518 l 69 376 b 151 267 118 363 151 318 l 151 -82 b 369 -276 151 -200 254 -292 l 424 -271 l 424 -143 l 400 -143 b 311 -54 350 -143 311 -103 l 311 311 b 233 440 311 367 281 417 b 311 569 281 464 311 513 z "},"}":{"ha":493,"x_min":0,"x_max":0,"o":"m 182 569 b 260 440 182 513 213 464 b 182 311 213 417 182 367 l 182 -54 b 93 -143 182 -103 143 -143 l 69 -143 l 69 -271 l 124 -276 b 342 -82 239 -292 342 -200 l 342 267 b 424 376 342 318 375 363 l 424 504 b 342 614 375 518 342 563 l 342 963 b 124 1157 342 1079 239 1171 l 69 1150 l 69 1022 l 93 1022 b 182 935 143 1022 182 982 z "},"[":{"ha":411,"x_min":0,"x_max":0,"o":"m 376 990 l 376 1136 l 83 1136 l 83 -260 l 376 -260 l 376 -114 l 242 -114 l 242 990 z "},"]":{"ha":411,"x_min":0,"x_max":0,"o":"m 35 990 l 169 990 l 169 -114 l 35 -114 l 35 -260 l 328 -260 l 328 1136 l 35 1136 z "},"-":{"ha":729,"x_min":0,"x_max":0,"o":"m 125 326 l 604 326 l 604 489 l 125 489 z "},"–":{"ha":971,"x_min":0,"x_max":0,"o":"m 125 326 l 846 326 l 846 489 l 125 489 z "},"—":{"ha":1650,"x_min":0,"x_max":0,"o":"m 125 326 l 1525 326 l 1525 489 l 125 489 z "},"_":{"ha":924,"x_min":0,"x_max":0,"o":"m 76 -201 l 847 -201 l 847 -56 l 76 -56 z "},"‚":{"ha":833,"x_min":0,"x_max":0,"o":"m 156 181 l 69 -292 l 165 -292 l 329 181 z "},"„":{"ha":833,"x_min":0,"x_max":0,"o":"m 156 181 l 69 -292 l 165 -292 l 329 181 z "},"“":{"ha":653,"x_min":0,"x_max":0,"o":"m 261 694 l 304 1006 l 213 1006 l 97 694 z m 513 694 l 556 1006 l 464 1006 l 350 694 z "},"”":{"ha":653,"x_min":0,"x_max":0,"o":"m 140 1006 l 97 694 l 189 694 l 304 1006 z m 393 1006 l 350 694 l 442 694 l 556 1006 z "},"‘":{"ha":394,"x_min":0,"x_max":0,"o":"m 261 694 l 304 1006 l 213 1006 l 97 694 z "},"’":{"ha":401,"x_min":0,"x_max":0,"o":"m 140 1006 l 97 694 l 189 694 l 304 1006 z "},"«":{"ha":647,"x_min":0,"x_max":0,"o":"m 522 246 l 306 408 l 522 569 l 522 739 l 125 408 l 522 76 z "},"»":{"ha":647,"x_min":0,"x_max":0,"o":"m 125 246 l 125 76 l 522 408 l 125 739 l 125 569 l 343 408 z "},"‹":{"ha":647,"x_min":0,"x_max":0,"o":"m 522 246 l 306 408 l 522 569 l 522 739 l 125 408 l 522 76 z "},"›":{"ha":647,"x_min":0,"x_max":0,"o":"m 125 246 l 125 76 l 522 408 l 125 739 l 125 569 l 343 408 z "},"\"":{"ha":607,"x_min":0,"x_max":0,"o":"m 97 1006 l 133 694 l 225 694 l 261 1006 z m 346 1006 l 382 694 l 474 694 l 510 1006 z "},"'":{"ha":358,"x_min":0,"x_max":0,"o":"m 97 1006 l 133 694 l 225 694 l 261 1006 z "},"　":{"ha":1389,"x_min":0,"x_max":0,"o":""}," ":{"ha":694,"x_min":0,"x_max":0,"o":""},"¢":{"ha":775,"x_min":0,"x_max":0,"o":"m 69 322 b 361 -26 69 149 196 4 l 361 -157 l 490 -157 l 490 -26 b 726 135 590 -8 675 51 l 597 215 b 425 121 560 158 497 121 b 222 322 314 121 222 211 b 425 524 222 433 314 524 b 597 429 497 524 560 488 l 726 511 b 490 671 675 593 590 653 l 490 801 l 361 801 l 361 671 b 69 322 196 642 69 496 z "},"¤":{"ha":708,"x_min":0,"x_max":0,"o":"m 50 268 l 124 343 b 89 472 101 381 89 425 b 124 601 89 519 101 564 l 50 676 l 150 776 l 224 701 b 354 738 263 725 307 738 b 485 703 401 738 446 725 l 557 776 l 656 676 l 583 604 b 619 472 607 565 619 521 b 583 342 619 424 607 379 l 654 271 l 556 172 l 483 243 b 354 207 446 219 403 207 b 224 243 307 207 261 221 l 150 169 z m 354 600 b 228 472 283 600 228 543 b 354 344 228 401 283 344 b 482 472 425 344 482 401 b 354 600 482 543 425 600 z "},"$":{"ha":828,"x_min":0,"x_max":0,"o":"m 779 261 b 426 576 779 444 606 521 b 244 710 335 604 244 638 b 424 847 244 793 331 847 b 604 749 508 847 565 810 l 754 819 b 472 1003 708 913 607 989 l 472 1103 l 343 1103 l 343 997 b 68 701 182 968 68 849 b 407 421 68 551 240 468 b 604 268 500 394 604 351 b 399 125 604 171 500 122 b 190 258 310 126 228 192 l 35 185 b 343 -29 94 76 206 -11 l 343 -133 l 472 -133 l 472 -29 b 779 261 649 -7 779 100 z "},"€":{"ha":1093,"x_min":0,"x_max":0,"o":"m 967 231 b 713 126 901 167 813 126 b 379 353 561 126 431 219 l 769 353 l 808 443 l 354 443 b 351 486 353 457 351 471 b 354 526 351 500 353 514 l 843 526 l 881 617 l 376 617 b 713 847 428 751 560 847 b 965 742 811 847 901 807 l 1029 894 b 711 1004 942 963 831 1004 b 211 617 469 1004 268 839 l 106 617 l 68 526 l 196 526 b 194 486 194 513 194 500 b 196 443 194 471 194 457 l 101 443 l 63 353 l 211 353 b 711 -32 271 131 471 -32 b 1031 78 832 -32 943 10 z "},"£":{"ha":854,"x_min":0,"x_max":0,"o":"m 300 257 l 300 424 l 524 424 l 524 553 l 300 553 l 300 665 b 486 851 300 768 383 851 b 658 736 564 851 631 804 l 799 800 b 486 1006 747 921 626 1006 b 146 665 297 1006 146 853 l 146 553 l 63 553 l 63 424 l 146 424 l 146 257 b 63 154 146 164 63 154 l 63 0 l 799 0 l 799 154 l 281 154 b 300 257 293 183 300 217 z "},"¥":{"ha":878,"x_min":0,"x_max":0,"o":"m 815 972 l 628 972 l 447 583 l 249 972 l 63 972 l 308 511 l 133 511 l 133 421 l 357 421 l 368 397 l 368 336 l 133 336 l 133 246 l 368 246 l 368 0 l 526 0 l 526 246 l 744 246 l 744 336 l 526 336 l 526 397 l 538 421 l 744 421 l 744 511 l 583 511 z "},"+":{"ha":882,"x_min":0,"x_max":0,"o":"m 785 515 l 511 515 l 511 789 l 371 789 l 371 515 l 97 515 l 97 375 l 371 375 l 371 101 l 511 101 l 511 375 l 785 375 z "},"−":{"ha":910,"x_min":0,"x_max":0,"o":"m 111 374 l 799 374 l 799 515 l 111 515 z "},"×":{"ha":815,"x_min":0,"x_max":0,"o":"m 704 247 l 507 444 l 704 642 l 606 742 l 408 544 l 211 742 l 111 642 l 308 444 l 111 247 l 211 149 l 408 346 l 606 149 z "},"÷":{"ha":910,"x_min":0,"x_max":0,"o":"m 561 714 b 454 607 561 654 513 607 b 347 714 394 607 347 654 b 454 819 347 772 394 819 b 561 714 513 819 561 772 z m 111 374 l 799 374 l 799 515 l 111 515 z m 561 176 b 454 69 561 118 513 69 b 347 176 394 69 347 118 b 454 283 347 235 394 283 b 561 176 513 283 561 235 z "},"=":{"ha":896,"x_min":0,"x_max":0,"o":"m 104 518 l 792 518 l 792 660 l 104 660 z m 104 231 l 792 231 l 792 372 l 104 372 z "},"≠":{"ha":910,"x_min":0,"x_max":0,"o":"m 799 518 l 799 660 l 589 660 l 636 807 l 501 807 l 456 660 l 111 660 l 111 518 l 411 518 l 365 372 l 111 372 l 111 231 l 321 231 l 276 82 l 410 82 l 456 231 l 799 231 l 799 372 l 500 372 l 544 518 z "},">":{"ha":864,"x_min":0,"x_max":0,"o":"m 88 285 l 88 126 l 778 446 l 88 764 l 88 606 l 475 446 z "},"<":{"ha":864,"x_min":0,"x_max":0,"o":"m 778 285 l 390 446 l 778 606 l 778 764 l 88 446 l 778 126 z "},"≥":{"ha":913,"x_min":0,"x_max":0,"o":"m 111 394 l 111 238 l 801 556 l 111 874 l 111 717 l 499 556 z m 801 0 l 801 142 l 114 142 l 114 0 z "},"≤":{"ha":913,"x_min":0,"x_max":0,"o":"m 801 394 l 414 556 l 801 717 l 801 874 l 111 556 l 801 238 z m 111 0 l 799 0 l 799 142 l 111 142 z "},"±":{"ha":861,"x_min":0,"x_max":0,"o":"m 775 685 l 501 685 l 501 951 l 361 951 l 361 685 l 88 685 l 88 544 l 361 544 l 361 278 l 501 278 l 501 544 l 775 544 z m 88 33 l 775 33 l 775 175 l 88 175 z "},"≈":{"ha":983,"x_min":0,"x_max":0,"o":"m 546 651 b 772 678 685 586 735 639 l 872 614 b 436 524 807 451 661 418 b 211 497 296 592 247 529 l 111 561 b 546 651 188 718 332 753 z m 546 347 b 772 375 685 282 735 336 l 872 311 b 436 221 807 147 661 114 b 211 193 296 288 247 226 l 111 257 b 546 347 188 414 332 449 z "},"~":{"ha":983,"x_min":0,"x_max":0,"o":"m 546 510 b 772 536 685 444 735 497 l 872 472 b 436 382 807 310 661 276 b 211 356 296 450 247 388 l 111 419 b 546 510 188 576 332 611 z "},"^":{"ha":833,"x_min":0,"x_max":0,"o":"m 307 403 l 432 703 l 551 403 l 710 403 l 432 1006 l 150 403 z "},"%":{"ha":1324,"x_min":0,"x_max":0,"o":"m 592 764 b 351 524 592 631 485 524 b 111 764 219 524 111 631 b 351 1004 111 896 219 1004 b 592 764 485 1004 592 896 z m 469 -32 l 306 -32 l 851 1004 l 1015 1004 z m 351 879 b 238 764 288 879 238 828 b 351 647 238 700 288 647 b 467 764 417 647 467 700 b 351 879 467 828 417 879 z m 1213 208 b 972 -32 1213 76 1106 -32 b 732 208 839 -32 732 76 b 972 449 732 342 839 449 b 1213 208 1106 449 1213 342 z m 972 324 b 858 208 908 324 858 272 b 972 93 858 144 908 93 b 1088 208 1036 93 1088 144 b 972 324 1088 272 1036 324 z "},"‰":{"ha":1863,"x_min":0,"x_max":0,"o":"m 592 764 b 351 524 592 631 485 524 b 111 764 219 524 111 631 b 351 1004 111 896 219 1004 b 592 764 485 1004 592 896 z m 469 -32 l 306 -32 l 851 1004 l 1015 1004 z m 351 879 b 238 764 288 879 238 828 b 351 647 238 700 288 647 b 467 764 417 647 467 700 b 351 879 467 828 417 879 z m 1213 208 b 972 -32 1213 76 1106 -32 b 732 208 839 -32 732 76 b 972 449 732 342 839 449 b 1213 208 1106 449 1213 342 z m 1751 208 b 1511 -32 1751 76 1644 -32 b 1271 208 1378 -32 1271 76 b 1511 449 1271 342 1378 449 b 1751 208 1644 449 1751 342 z m 972 324 b 858 208 908 324 858 272 b 972 93 858 144 908 93 b 1088 208 1036 93 1088 144 b 972 324 1088 272 1036 324 z m 1511 324 b 1397 208 1447 324 1397 272 b 1511 93 1397 144 1447 93 b 1626 208 1575 93 1626 144 b 1511 324 1626 272 1575 324 z "},"↑":{"ha":844,"x_min":0,"x_max":0,"o":"m 782 674 l 422 1032 l 63 674 l 160 575 l 351 767 l 351 -60 l 493 -60 l 493 767 l 685 575 z "},"→":{"ha":1217,"x_min":0,"x_max":0,"o":"m 1154 485 l 794 844 l 697 747 l 889 556 l 63 556 l 63 414 l 889 414 l 697 222 l 794 125 z "},"↓":{"ha":844,"x_min":0,"x_max":0,"o":"m 685 399 l 493 207 l 493 1032 l 351 1032 l 351 207 l 160 399 l 63 300 l 422 -60 l 782 300 z "},"←":{"ha":1217,"x_min":0,"x_max":0,"o":"m 1154 556 l 328 556 l 519 747 l 422 844 l 63 485 l 422 125 l 519 222 l 328 414 l 1154 414 z "},"↔":{"ha":1304,"x_min":0,"x_max":0,"o":"m 883 844 l 785 747 l 976 556 l 328 556 l 519 747 l 422 844 l 63 485 l 422 125 l 519 222 l 328 414 l 976 414 l 785 222 l 883 125 l 1242 485 z "},"↕":{"ha":844,"x_min":0,"x_max":0,"o":"m 493 163 l 493 811 l 685 619 l 782 718 l 422 1076 l 63 718 l 160 619 l 351 811 l 351 163 l 160 354 l 63 257 l 422 -103 l 782 257 l 685 354 z "},"@":{"ha":1306,"x_min":0,"x_max":0,"o":"m 963 486 b 701 783 982 650 865 783 b 368 486 538 783 388 650 b 628 190 347 322 464 190 b 821 256 699 190 765 215 b 1103 247 860 194 974 154 b 1103 917 1236 342 1321 699 b 678 1094 992 1026 846 1094 b 69 486 343 1094 69 821 b 678 -122 69 150 343 -122 b 1125 -17 874 -122 1003 -86 l 1075 86 b 678 -8 949 21 833 -8 b 188 486 407 -8 188 214 b 678 975 188 758 408 975 b 1024 835 813 975 936 925 b 1044 339 1183 678 1144 425 b 944 344 990 292 940 301 z m 644 321 b 499 486 551 321 486 394 b 685 653 510 578 594 653 b 831 486 776 653 843 578 b 644 321 819 394 736 321 z "},"&":{"ha":1122,"x_min":0,"x_max":0,"o":"m 1060 71 b 829 246 976 132 901 190 b 919 465 894 360 919 465 l 775 510 b 710 344 775 510 756 431 b 507 524 633 406 567 467 b 694 761 606 582 694 649 b 449 1006 694 910 583 1006 b 199 750 311 1006 199 894 b 275 551 199 681 224 617 b 63 265 165 492 63 415 b 403 -33 63 103 206 -33 b 739 128 551 -33 661 40 b 968 -50 867 28 968 -50 z m 415 617 b 347 761 367 668 347 719 b 450 867 347 811 383 867 b 550 763 511 867 550 813 b 415 617 551 694 489 656 z m 404 110 b 221 267 290 110 221 183 b 369 447 221 347 288 400 b 625 221 438 381 532 297 b 404 110 569 158 499 110 z "},"©":{"ha":1172,"x_min":0,"x_max":0,"o":"m 586 -33 b 69 483 301 -33 69 199 b 586 1001 69 769 301 1001 b 1103 483 872 1001 1103 769 b 586 -33 1103 199 872 -33 z m 586 911 b 160 483 351 911 160 719 b 586 57 160 249 351 57 b 1014 483 822 57 1014 249 b 586 911 1014 719 822 911 z m 721 407 b 597 338 696 364 650 338 b 451 483 517 338 451 403 b 597 631 451 565 517 631 b 721 561 650 631 696 603 l 815 621 b 597 742 771 693 689 742 b 340 483 456 742 340 626 b 597 225 340 342 456 225 b 815 347 689 225 771 274 z "},"®":{"ha":617,"x_min":0,"x_max":0,"o":"m 264 472 b -3 739 117 472 -3 592 b 264 1006 -3 886 117 1006 b 531 739 411 1006 531 886 b 264 472 531 592 411 472 z m 264 946 b 57 739 150 946 57 853 b 264 532 57 625 150 532 b 472 739 379 532 472 625 b 264 946 472 853 379 946 z m 397 590 l 349 710 b 388 788 372 728 388 756 b 289 888 388 843 343 888 l 146 888 l 146 590 l 225 590 l 225 689 b 250 689 232 689 243 689 l 268 689 l 308 590 z m 225 758 l 225 818 l 279 818 b 308 788 296 818 308 804 b 279 758 308 772 296 758 z "},"™":{"ha":1246,"x_min":0,"x_max":0,"o":"m 1133 1007 l 865 757 l 597 1007 l 597 472 l 693 472 l 693 801 l 865 636 l 1038 801 l 1038 472 l 1133 472 z m 521 989 l 56 989 l 56 897 l 240 897 l 240 472 l 336 472 l 336 897 l 521 897 z "},"°":{"ha":675,"x_min":0,"x_max":0,"o":"m 564 764 b 324 524 564 631 457 524 b 83 764 192 524 83 631 b 324 1004 83 896 192 1004 b 564 764 457 1004 564 896 z m 324 879 b 210 764 260 879 210 828 b 324 647 210 700 260 647 b 439 764 389 647 439 700 b 324 879 439 828 389 879 z "},"|":{"ha":364,"x_min":0,"x_max":0,"o":"m 253 -128 l 111 -128 l 111 972 l 253 972 z "},"¦":{"ha":364,"x_min":0,"x_max":0,"o":"m 253 542 l 111 542 l 111 972 l 253 972 z m 253 -128 l 111 -128 l 111 303 l 253 303 z "},"̦":{"ha":0,"x_min":0,"x_max":0,"o":"m -250 -86 l -282 -318 l -197 -318 l -111 -86 z "},"¨":{"ha":790,"x_min":0,"x_max":0,"o":"m 306 843 b 208 746 306 789 263 746 b 111 843 156 746 111 789 b 208 940 111 896 156 940 b 306 843 263 940 306 896 z m 679 843 b 582 746 679 789 636 746 b 485 843 529 746 485 789 b 582 940 485 896 529 940 b 679 843 636 940 679 896 z "},"˙":{"ha":417,"x_min":0,"x_max":0,"o":"m 306 843 b 208 746 306 789 263 746 b 111 843 156 746 111 789 b 208 940 111 896 156 940 b 306 843 263 940 306 896 z "},"`":{"ha":469,"x_min":0,"x_max":0,"o":"m 247 972 l 83 972 l 267 740 l 358 740 z "},"´":{"ha":469,"x_min":0,"x_max":0,"o":"m 224 972 l 111 740 l 203 740 l 386 972 z "},"˝":{"ha":626,"x_min":0,"x_max":0,"o":"m 188 972 l 111 740 l 196 740 l 344 972 z m 422 972 l 346 740 l 431 740 l 578 972 z "},"ˆ":{"ha":714,"x_min":0,"x_max":0,"o":"m 468 740 l 603 740 l 428 972 l 288 972 l 111 740 l 243 740 l 357 869 z "},"ˇ":{"ha":714,"x_min":0,"x_max":0,"o":"m 468 972 l 357 843 l 243 972 l 111 972 l 288 740 l 428 740 l 603 972 z "},"˘":{"ha":638,"x_min":0,"x_max":0,"o":"m 493 961 b 319 788 493 865 415 788 b 146 961 224 788 146 865 l 181 961 b 319 822 181 885 242 822 b 458 961 396 822 458 885 z "},"˚":{"ha":542,"x_min":0,"x_max":0,"o":"m 406 863 b 272 728 406 788 346 728 b 138 863 197 728 138 788 b 272 996 138 936 197 996 b 406 863 346 996 406 936 z m 326 863 b 272 917 326 893 303 917 b 217 863 240 917 217 893 b 272 807 217 831 240 807 b 326 863 303 807 326 831 z "},"˜":{"ha":776,"x_min":0,"x_max":0,"o":"m 418 904 b 590 933 504 872 560 901 l 665 853 b 360 783 585 740 479 739 b 186 754 271 817 218 788 l 111 836 b 418 904 175 929 272 960 z "},"¯":{"ha":683,"x_min":0,"x_max":0,"o":"m 572 772 l 572 901 l 111 901 l 111 772 z "},"¸":{"ha":546,"x_min":0,"x_max":0,"o":"m 286 -56 l 321 15 l 210 15 l 164 -75 l 164 -133 b 235 -133 176 -132 214 -131 b 294 -183 265 -140 294 -154 b 226 -232 294 -214 264 -229 b 111 -222 185 -235 111 -222 l 111 -308 b 276 -335 111 -308 181 -340 b 433 -189 367 -329 433 -276 b 286 -56 433 -110 369 -62 z "},"˛":{"ha":500,"x_min":0,"x_max":0,"o":"m 389 0 b 250 -119 294 -47 247 -82 b 288 -150 251 -137 271 -150 b 336 -140 311 -151 336 -140 l 389 -224 b 265 -262 389 -224 336 -262 b 118 -178 193 -262 138 -229 b 211 0 96 -119 132 -40 b 339 49 278 38 339 49 z "}}}
